<?xml version="1.0" standalone="no"?>
<!DOCTYPE svg PUBLIC "-//W3C//DTD SVG 1.1//EN" "http://www.w3.org/Graphics/SVG/1.1/DTD/svg11.dtd" >
<svg xmlns="http://www.w3.org/2000/svg">
<metadata></metadata>
<defs>
<font id="opificiobold" horiz-adv-x="1230" >
<font-face units-per-em="2048" ascent="1638" descent="-410" />
<missing-glyph horiz-adv-x="686" />
<glyph horiz-adv-x="2048" />
<glyph horiz-adv-x="2048" />
<glyph unicode="&#xd;" horiz-adv-x="872" />
<glyph unicode=" "  horiz-adv-x="686" />
<glyph unicode="&#x09;" horiz-adv-x="686" />
<glyph unicode="&#xa0;" horiz-adv-x="686" />
<glyph unicode="!" horiz-adv-x="403" d="M70 132q0 56 37.5 94t94 38t94.5 -38t38 -94t-38 -94t-94 -38t-94 38t-38 94zM84 328v1106h238v-1106h-238z" />
<glyph unicode="&#x22;" horiz-adv-x="651" d="M80 1024v410h223v-410h-223zM346 1024v410h223v-410h-223z" />
<glyph unicode="#" horiz-adv-x="1155" d="M43 391v238h203l45 159h-156v238h223l115 408h234l-115 -408h156l114 408h234l-115 -408h129v-238h-197l-45 -159h150v-238h-217l-111 -391h-233l110 391h-155l-111 -391h-233l110 391h-135zM479 629h156l45 159h-156z" />
<glyph unicode="$" horiz-adv-x="1142" d="M47 508h246q0 -96 43 -176t123 -117v461q-160 56 -222.5 107t-99.5 105t-51 130q-19 150 94 282q109 128 279 164v119h237v-117q173 -35 283 -184q85 -115 90 -235h-250q-29 127 -123 174v-375q186 -66 276 -148q124 -113 124 -305q0 -169 -117 -289q-103 -106 -283 -139 v-117h-237v121q-182 39 -294 175q-125 154 -118 364zM334 1048q10 -47 43 -72.5t82 -47.5v297q-70 -27 -102.5 -78.5t-22.5 -98.5zM696 205q156 50 156 188q0 72 -44 116t-112 79v-383z" />
<glyph unicode="%" horiz-adv-x="903" d="M59 1301q0 56 38 94.5t94 38.5t93.5 -38t37.5 -94.5t-37 -94.5t-93.5 -38t-94.5 38t-38 94zM127 0l463 1434h252l-461 -1434h-254zM506 132q0 56 38 94t94 38t93 -38t37 -94t-37 -94t-93 -38t-94 38t-38 94z" />
<glyph unicode="&#x26;" horiz-adv-x="1296" d="M41 395q0 102 48 202.5t147 178.5l65 53q-55 66 -86 121.5t-31 124t24.5 125.5t66.5 99q92 92 221 92q130 0 222 -92q91 -91 91 -222q0 -94 -43 -156.5t-113 -111.5q-8 -8 -8 -7l4 4q0 1 -6 -3v-2l262 -287l178 180l170 -170l-186 -188l164 -180l-176 -158l-156 172 l-78 -76q-143 -143 -329 -143q-88 0 -174.5 37t-150.5 101q-126 126 -126 306zM270 395q0 -72 66 -133q63 -67 158 -67q98 0 161 65l86 86l-272 313l-78 -67q-121 -102 -121 -197zM442 1130q-60 -58 45 -153q27 16 54.5 44t27.5 57.5t-21.5 51t-51.5 21.5q-31 0 -54 -21z " />
<glyph unicode="'" horiz-adv-x="385" d="M80 1024v410h223v-410h-223z" />
<glyph unicode="(" horiz-adv-x="512" d="M63 -121v1483q0 262 227 310q70 14 156 14v-232q-145 0 -145 -92v-1479q0 -57 61 -83q39 -17 84 -17v-227q-267 0 -352 170q-31 63 -31 153z" />
<glyph unicode=")" horiz-adv-x="514" d="M66 -217q82 0 126 46q19 19 19 54v1479q0 92 -145 92v232q185 0 276 -66q107 -78 107 -258v-1483q0 -170 -114 -253q-96 -70 -269 -70v227z" />
<glyph unicode="*" horiz-adv-x="573" d="M51 1198l86 158l58 -33v68h176v-68l61 33l76 -146l-43 -41l55 -32l-100 -164l-49 43v-66h-176v68l-58 -31l-80 137l47 45z" />
<glyph unicode="+" horiz-adv-x="790" d="M29 541v237h245v246h238v-246h250v-237h-250v-250h-238v250h-245z" />
<glyph unicode="," horiz-adv-x="327" d="M31 136q0 52 37.5 90t94 38t94.5 -38t38 -95v-72q0 -51 -10.5 -84.5t-48 -64.5t-61 -34t-31.5 12q-20 32 10 94q2 8 0 11t-29 7t-47.5 18.5t-30.5 33.5q-16 32 -16 84z" />
<glyph unicode="-" horiz-adv-x="897" d="M82 498v237h733v-237h-733z" />
<glyph unicode="." horiz-adv-x="376" d="M57 132q0 56 38 94t94 38t93 -38t37 -94t-36.5 -94t-93 -38t-94.5 38t-38 94z" />
<glyph unicode="/" horiz-adv-x="751" d="M16 0l467 1434h252l-465 -1434h-254z" />
<glyph unicode="0" horiz-adv-x="1587" d="M55 694q0 152 58.5 287t159 235.5t234.5 159t286 58.5t286.5 -58.5t235 -159t159 -235.5t58.5 -287t-58.5 -286t-159 -234t-235.5 -158.5t-286 -58.5q-152 0 -286 58.5t-234.5 158.5t-159 234t-58.5 286zM293 694q0 -203 147 -352q146 -147 353 -147q206 0 351 147 q148 149 148 352q0 205 -147.5 352.5t-351.5 147.5q-205 0 -352.5 -147.5t-147.5 -352.5z" />
<glyph unicode="1" horiz-adv-x="532" d="M55 1196v238h422v-1434h-237v1196h-185z" />
<glyph unicode="2" horiz-adv-x="1093" d="M88 973q4 237 137 370q138 138 330 134q186 -4 322 -134q133 -137 133 -329q0 -187 -133 -322l-471 -454h622v-238h-936v209l617 651q68 76 65.5 163t-65.5 153q-72 63 -162 63t-154 -63q-55 -55 -69 -203h-236z" />
<glyph unicode="3" horiz-adv-x="1232" d="M39 516h237q0 -133 89.5 -228t244 -94t235.5 95t82 240.5t-117 245.5t-302 99v197l166 121h-553v242h907v-2l2 2v-242l-209 -156q129 -41 204 -125q140 -157 140 -393q0 -232 -165 -398q-163 -165 -398 -165q-233 0 -398 165t-165 396z" />
<glyph unicode="4" horiz-adv-x="1067" d="M27 229l290 1205h244l-233 -965h286v223h238v-223h149v-240h-149v-229h-238v229h-587z" />
<glyph unicode="5" horiz-adv-x="1220" d="M43 510h225q4 -125 98.5 -220t245 -96t242.5 98t90 220q0 162 -96 254t-270 92q-125 -6 -201 -63h-246l127 639h713v-242h-510l-37 -160q162 68 333 28t255 -136q157 -178 157 -412t-164.5 -398.5t-398.5 -164.5q-232 0 -398 165q-165 163 -165 396z" />
<glyph unicode="6" d="M57 514v363q0 117 44 239.5t120 197.5q165 163 395 163q131 0 233.5 -55.5t190.5 -141.5l-166 -168q-57 53 -118.5 89t-152.5 36t-173 -59.5t-117 -196.5q133 92 303 90q115 2 216.5 -43t177.5 -120q164 -162 164 -394q0 -231 -164 -394q-165 -163 -394 -163 q-230 0 -395 163q-164 162 -164 394zM295 514q0 -132 95 -225q96 -94 226 -94q132 0 226 94t94 225t-94 225q-95 95 -226 95q-129 0 -226 -95q-95 -93 -95 -225z" />
<glyph unicode="7" horiz-adv-x="1120" d="M39 0l639 1194h-594v240h1003l-772 -1434h-276z" />
<glyph unicode="8" horiz-adv-x="1243" d="M47 530q0 164 80 295t215 207q-29 59 -29 132t24.5 129.5t65.5 97.5q90 90 218 90t220 -90q91 -89 91 -220q0 -76 -31 -139q133 -76 214 -207t81 -272.5t-45 -245.5t-123 -182q-168 -168 -407 -168q-238 0 -406 168t-168 405zM293 530q0 -135 96 -231t232 -96 q137 0 233 96t96 214.5t-55 200.5q-79 118 -207 139q-31 5 -83 6t-111.5 -24.5t-104.5 -70.5q-96 -96 -96 -234zM549 1161q0 -31 20.5 -53.5t52.5 -22.5t52 24t20 53.5t-20.5 51t-52 21.5t-52 -21.5t-20.5 -52.5z" />
<glyph unicode="9" d="M57 920q0 232 164 394q165 163 393 163q231 0 396 -163q164 -163 164 -394v-363q0 -117 -44.5 -239.5t-119.5 -197.5q-165 -163 -396 -163q-131 0 -233 55.5t-191 141.5l166 168q57 -53 119 -89t152.5 -36t173 59t117.5 197q-133 -92 -304 -91q-115 -2 -216 43.5 t-177 120.5q-164 160 -164 394zM295 920q0 -132 94 -226t225 -94t227 94q95 93 95 226q0 132 -95 225q-96 94 -227 94t-225 -94t-94 -225z" />
<glyph unicode=":" horiz-adv-x="393" d="M66 132q0 56 36.5 94t94.5 38q57 0 94 -38t37 -94t-37 -94t-94 -38t-94 38t-37 94zM66 892q0 56 36.5 94t94.5 38q57 0 94 -38t37 -94t-37 -94t-94 -38t-94 38t-37 94z" />
<glyph unicode=";" horiz-adv-x="342" d="M39 135.5q0 52.5 38 90.5t94 38t94 -38t38 -95v-72q0 -51 -10 -84.5t-48 -64.5t-61.5 -34t-31.5 12q-18 30 10 94q2 8 0 11t-29 7t-47 18.5t-30 33.5q-17 31 -17 83.5zM39 892q0 56 38 94t94 38t94 -38t38 -94t-38 -94t-94 -38t-94 38t-38 94z" />
<glyph unicode="&#x3c;" horiz-adv-x="925" d="M45 408v215l836 360v-260l-478 -209l478 -207v-262z" />
<glyph unicode="=" horiz-adv-x="1142" d="M82 246v237h979v-237h-979zM82 604v238h979v-238h-979z" />
<glyph unicode="&#x3e;" horiz-adv-x="925" d="M45 45v262l475 207l-475 209v260l836 -360v-215z" />
<glyph unicode="?" horiz-adv-x="1060" d="M31 1059q52 174 193 277q133 98 298 98q209 0 358 -148q68 -69 108 -162.5t40 -190.5t-29.5 -178t-82.5 -145q-113 -136 -281 -178v-102h-238v321h125q115 0 195 80t80 195q0 114 -80 194t-195 80q-156 0 -243 -141h-248zM387 132q0 56 37 94t93 38t94 -38t38 -94 t-38 -94t-94 -38t-93 38t-37 94z" />
<glyph unicode="@" horiz-adv-x="1640" d="M61 727q0 152 59.5 288t163 239.5t241 164t292.5 60.5q156 0 294 -58.5t242.5 -159t165 -235.5t60.5 -287v-497q0 -217 -160 -270q-47 -15 -101 -15t-101.5 20.5t-80.5 57.5q-71 78 -71 203v71q-14 -10 -29.5 -16t-29.5 -14q-86 -35 -187.5 -35t-189.5 37.5t-153 102.5 q-140 142 -140 341q0 202 140 345q139 140 341 140q204 0 345 -140q141 -142 141 -345v-487q0 -20 3 -30.5t18 -10.5t16 18t1 23v501q0 205 -155 355q-150 147 -369 147q-214 0 -367 -155q-151 -153 -151 -359q0 -104 42 -200.5t115 -170.5q162 -161 388 -161v-238 q-164 0 -306.5 63.5t-248 170t-167 245.5t-61.5 291zM571 725q0 -100 73 -173t173 -73q102 0 175 73t73 173q0 102 -73 175t-175 73q-100 0 -173 -73t-73 -175z" />
<glyph unicode="A" horiz-adv-x="1208" d="M35 0l459 1434h221l459 -1434h-256l-168 514h-295l-164 -514h-256zM528 717h154l-78 274z" />
<glyph unicode="B" horiz-adv-x="1130" d="M68 0v1434h411q343 0 453 -224q37 -75 37 -180q0 -180 -109 -266q145 -51 188 -236q13 -53 13 -104q0 -213 -155 -326q-134 -98 -349 -98h-489zM313 248h244q164 0 225 95q21 34 21 83q1 104 -63 144q-60 38 -172 38h-11h-244v-360zM313 850h226q176 7 176 180 q-7 162 -232 162h-170v-342z" />
<glyph unicode="C" horiz-adv-x="1536" d="M49 716q0 157 60.5 296t164 242.5t241.5 164t275.5 60.5t240 -33t189.5 -90q171 -111 267 -285h-311q-160 160 -365 160q-212 0 -365 -151q-71 -70 -112 -164.5t-41 -199.5t41 -198.5t112 -163.5q152 -153 365 -153q210 0 367 155h309q-97 -181 -271 -288 q-181 -113 -405 -113q-158 0 -296 60.5t-241.5 164t-164 241.5t-60.5 295z" />
<glyph unicode="D" horiz-adv-x="1347" d="M66 0v1434h499q150 0 280 -59.5t226 -160t152.5 -234.5t56.5 -282q0 -147 -56.5 -275t-152.5 -223q-204 -200 -506 -200h-499zM311 246h254q198 0 333 128q138 128 138 324q0 199 -138 342q-140 148 -333 148h-254v-942z" />
<glyph unicode="E" horiz-adv-x="1155" d="M82 0v1434h991v-246h-745v-430h614v-244h-614v-268h745v-246h-991z" />
<glyph unicode="F" horiz-adv-x="1140" d="M86 0v1434h991v-246h-745v-430h614v-244h-614v-514h-246z" />
<glyph unicode="G" horiz-adv-x="1597" d="M53 716q0 157 60.5 296t164 242.5t241.5 164t282.5 60.5t256 -37t200.5 -102q176 -129 262 -349h-275q-93 171 -299 223q-65 17 -151 17t-180.5 -41t-165 -110.5t-111.5 -164t-41 -199.5t41 -197.5t112 -162.5q153 -151 356 -156h22q187 0 298 78q117 82 140 236h-428 v244h702q0 -580 -395 -746q-137 -57 -312.5 -57t-313.5 60.5t-241.5 164t-164 241.5t-60.5 295z" />
<glyph unicode="H" horiz-adv-x="1155" d="M82 0v1434h246v-676h501v676h244v-1434h-244v514h-501v-514h-246z" />
<glyph unicode="I" horiz-adv-x="407" d="M80 0v1434h246v-1434h-246z" />
<glyph unicode="J" horiz-adv-x="1118" d="M63 508h242q0 -255 155 -304q46 -14 98 -14t98 19.5t81 58.5q74 82 74 240v680h-614v246h860v-926q0 -224 -117 -379q-132 -174 -381 -174q-231 0 -361 143q-135 147 -135 410z" />
<glyph unicode="K" horiz-adv-x="1185" d="M66 0v1434h243v-519l451 519h287l-553 -666l624 -768h-291l-487 586l-31 -39v-547h-243z" />
<glyph unicode="L" horiz-adv-x="1116" d="M80 0v1434h246v-1188h745v-246h-991z" />
<glyph unicode="M" horiz-adv-x="1386" d="M82 0v1434h217l393 -537l395 537h218v-1434h-246v983l-367 -500l-364 494v-977h-246z" />
<glyph unicode="N" horiz-adv-x="1155" d="M82 0v1434h221l526 -902v902h244v-1434h-219l-526 901v-901h-246z" />
<glyph unicode="O" horiz-adv-x="1634" d="M55 716q0 157 60.5 296t165 242.5t243 164t293.5 60.5q156 0 295 -60.5t242.5 -164t164 -243t60.5 -296t-60.5 -294.5t-164 -241.5t-242.5 -164t-295 -60.5t-294 60.5t-242.5 164t-165 241.5t-60.5 295zM301 716q0 -105 41 -198.5t112 -163.5q152 -153 363 -153 q104 0 198.5 41t164.5 112q153 152 153 363q0 104 -41 198.5t-112 164.5q-153 151 -363 151t-363 -151q-71 -70 -112 -164.5t-41 -199.5z" />
<glyph unicode="P" horiz-adv-x="1071" d="M80 0v1434h450q229 -4 359.5 -119t130.5 -344q0 -345 -289 -431q-90 -26 -201 -26h-204v-514h-246zM326 754h206q121 0 185.5 48t64.5 169t-68.5 171t-181.5 50h-206v-438z" />
<glyph unicode="Q" horiz-adv-x="1622" d="M49 716q0 157 60.5 296t165 242.5t242.5 164t294 60.5t295 -60.5t242.5 -164t164 -243t60.5 -295.5q0 -309 -223 -538q-82 -77 -164 -123q24 -8 82 -8v-246q-115 0 -201 46.5t-125 119.5q-66 -12 -131 -12q-156 0 -294 60.5t-242.5 164t-165 241.5t-60.5 295zM295 717 q0 -209 147 -361q148 -151 355 -155v200q194 0 283 -102l14 -16q34 24 93 81.5t99.5 151.5t40.5 199.5t-41 200t-112 164.5q-153 151 -363 151t-363 -151q-71 -70 -112 -164.5t-41 -198.5z" />
<glyph unicode="R" horiz-adv-x="1093" d="M76 0v1434h450q350 -6 455 -262q35 -85 35 -196.5t-42 -207.5t-122 -139q72 -29 102 -70q60 -80 60 -216v-17v-326h-246v326q0 100 -70 148q-56 40 -151 40h-225v-514h-246zM322 752h206q119 2 183.5 55t64.5 170t-71.5 170t-176.5 53h-206v-448z" />
<glyph unicode="S" horiz-adv-x="1161" d="M57 508h246q0 -135 76 -223q82 -95 208 -95t200.5 52.5t74.5 150.5q0 137 -204 215q-58 23 -125.5 46.5t-172.5 66.5q-228 93 -264 297q-2 20 -2 39q0 71 29 137q37 84 107 148q150 137 362 137q229 0 372 -165q58 -67 85.5 -141.5t29.5 -125.5h-250q-41 191 -239 198 h-13q-110 0 -179 -63q-55 -50 -55 -112q0 -15 3 -32q14 -71 175 -128q46 -17 114.5 -39.5t156 -56.5t156.5 -87q158 -120 158 -334q0 -203 -156 -323q-147 -115 -358 -115q-217 0 -373 145q-162 150 -162 386v22z" />
<glyph unicode="T" horiz-adv-x="1136" d="M78 1188v246h993v-246h-375v-1188h-243v1188h-375z" />
<glyph unicode="U" horiz-adv-x="1140" d="M74 451v983h245v-983q0 -106 73 -177q74 -73 177 -73q107 0 179.5 72.5t72.5 177.5v983h246v-983q0 -209 -143.5 -352.5t-354.5 -143.5q-208 0 -351.5 143.5t-143.5 352.5z" />
<glyph unicode="V" horiz-adv-x="1208" d="M35 1434h256l313 -969l314 969h256l-459 -1434h-221z" />
<glyph unicode="W" horiz-adv-x="1386" d="M82 0v1434h246v-979l364 493l367 -499v985h246v-1434h-218l-395 537l-393 -537h-217z" />
<glyph unicode="X" horiz-adv-x="1196" d="M63 0l394 717l-371 717h283l229 -445l225 445h283l-369 -719l393 -715h-278l-254 457l-256 -457h-279z" />
<glyph unicode="Y" horiz-adv-x="1234" d="M31 1434h274l311 -605q212 407 312 605h276l-459 -875v-559h-256v555z" />
<glyph unicode="Z" horiz-adv-x="1153" d="M80 0v207l670 981h-670v246h991v-207l-672 -981h672v-246h-991z" />
<glyph unicode="[" horiz-adv-x="567" d="M68 -399v2015h430v-238h-193v-1540h193v-237h-430z" />
<glyph unicode="\" horiz-adv-x="739" d="M6 1434h254l463 -1434h-252z" />
<glyph unicode="]" horiz-adv-x="565" d="M68 -162h192v1540h-192v238h430v-2015h-430v237z" />
<glyph unicode="^" horiz-adv-x="1011" d="M37 555l362 836h215l361 -836h-260l-209 477l-207 -477h-262z" />
<glyph unicode="_" horiz-adv-x="1193" d="M82 0v238h1030v-238h-1030z" />
<glyph unicode="`" horiz-adv-x="473" d="M39 1391h254l139 -342h-254z" />
<glyph unicode="a" horiz-adv-x="1241" d="M61 514q0 232 164.5 394.5t395.5 162.5q230 0 394 -163q163 -161 163 -394v-514h-238v57q-141 -100 -319 -100q-251 0 -407 162q-153 159 -153 395zM301 514q0 -131 94 -225t226 -94q134 0 226 90q93 91 93 229q0 131 -94 225q-95 95 -225 95q-131 0 -226 -95 q-94 -94 -94 -225z" />
<glyph unicode="b" horiz-adv-x="1263" d="M76 514v920h237v-484q85 79 230 111q45 10 90 10q230 0 394 -163q163 -161 163 -394q0 -231 -163 -394t-394 -163q-233 0 -395 161q-162 160 -162 396zM313 514q0 -130 95 -225q94 -94 225 -94t225 94t94 225t-94 225q-95 95 -225 95t-225 -95t-95 -225z" />
<glyph unicode="c" horiz-adv-x="1179" d="M49 514q0 234 164 394q166 163 395 163q259 0 424 -191q58 -67 96 -161h-268q-85 115 -252 115q-130 0 -225 -95q-94 -94 -94 -225t94 -225t225 -94q169 0 252 116h266q-113 -266 -362 -333q-76 -21 -174.5 -21t-199.5 44t-177 119q-164 162 -164 394z" />
<glyph unicode="d" horiz-adv-x="1261" d="M70 514q0 232 162.5 394.5t394.5 162.5q128 0 256 -75q37 -21 63 -46v484h238v-920q0 -236 -162 -396q-163 -161 -395 -161q-233 0 -395 163q-162 164 -162 394zM307 514q0 -131 94 -225t226 -94q131 0 225 94t94 225t-94 225q-95 95 -225 95q-131 0 -226 -95 q-94 -94 -94 -225z" />
<glyph unicode="e" horiz-adv-x="1224" d="M53 514q0 234 164 394q166 163 395 163q248 0 406 -173q149 -163 153 -400h-878q4 -125 98 -215q92 -88 209.5 -88t193.5 52t111 140h260q-98 -328 -382 -407q-85 -23 -186.5 -23t-202.5 44t-177 119q-164 162 -164 394zM338 705h545q-78 131 -271 133q-197 -6 -274 -133 z" />
<glyph unicode="f" horiz-adv-x="772" d="M37 498v237h94v398q0 206 165 277q56 24 136 24t137.5 -21.5t94.5 -61.5q69 -76 69 -218v-62h-237v62q0 25 -16.5 43t-45.5 18t-45 -18.5t-16 -42.5v-398h235v-237h-235v-498h-242v498h-94z" />
<glyph unicode="g" horiz-adv-x="1255" d="M63 504q0 128 45 228q44 102 118 176q163 163 395 163q170 0 319 -100v53h238v-874q0 -233 -163 -394q-165 -164 -394 -164q-174 2 -301 86t-199 197l143 150q92 -113 174 -154t184.5 -41t184.5 61.5t115 153.5q-142 -88 -301 -88q-86 0 -178 31t-177.5 100.5 t-138.5 163.5q-64 120 -64 252zM301 514q0 -131 94 -225t226 -94q137 4 226 93q93 93 93 240q0 59 -20 109q-41 86 -120 141.5t-162 55.5t-141.5 -26t-101.5 -69q-94 -94 -94 -225z" />
<glyph unicode="h" horiz-adv-x="1081" d="M74 0v1434h241v-426q102 63 215 63t199 -37t147 -100q130 -134 130 -330v-604h-240l-2 606q0 91 -66 158q-63 65 -159 65q-88 0 -154 -68q-68 -70 -68 -157v-604h-243z" />
<glyph unicode="i" horiz-adv-x="401" d="M49 1286.5q0 63.5 43 106.5t107 43t106.5 -43t42.5 -106.5t-43 -106.5t-106 -43t-106.5 43t-43.5 106.5zM78 0v1024h237v-1024h-237z" />
<glyph unicode="j" horiz-adv-x="389" d="M-289 -59h242q0 -61 59 -62q29 0 46.5 17.5t17.5 44.5v1083h237v-1083v-12q0 -131 -86 -212q-81 -77 -217 -77q-133 0 -217 88q-82 86 -82 213zM45 1284.5q0 63.5 43 106.5t107 43t106.5 -43t42.5 -106.5t-43 -106.5t-106 -43t-106.5 43t-43.5 106.5z" />
<glyph unicode="k" horiz-adv-x="935" d="M74 1434h237v-646l267 236h311l-459 -434l449 -590h-301l-267 350l2 -350h-237z" />
<glyph unicode="l" horiz-adv-x="399" d="M80 0v1434h237v-1434h-237z" />
<glyph unicode="m" horiz-adv-x="1779" d="M78 1024h241v-57q89 104 224 104q199 0 338 -156q66 72 157.5 114t191 42t184.5 -37t148 -100q136 -139 136 -330l2 -604h-242l-2 604q0 91 -66 158q-65 67 -157 67q-91 0 -158 -67q-65 -65 -65 -158l2 -604h-242l-2 604q0 93 -66 160q-63 65 -159 65q-92 0 -158 -68 t-66 -157l3 -604h-242z" />
<glyph unicode="n" horiz-adv-x="1085" d="M76 0v1024h237v-59q82 102 228 106q189 0 329 -137q138 -137 138 -330l2 -604h-242l-2 604q0 91 -66 158q-65 67 -159 67q-91 0 -160 -69q-68 -68 -68 -156l2 -604h-239z" />
<glyph unicode="o" horiz-adv-x="1226" d="M55 514q0 234 164 394q166 163 395 163q232 0 394.5 -162.5t162.5 -394.5q0 -230 -163 -394q-161 -163 -394 -163q-230 0 -395 163q-164 162 -164 394zM295 514q0 -131 94 -225t225 -94q132 0 226 94t94 225t-94 225q-95 95 -226 95q-130 0 -225 -95q-94 -94 -94 -225z " />
<glyph unicode="p" horiz-adv-x="1251" d="M88 -406v918q0 238 162 396q164 161 395 161q233 0 395 -163q162 -164 162 -394t-162 -394q-162 -163 -395 -163q-128 0 -256 75q-37 21 -63 46v-482h-238zM326 512q0 -131 94 -225t225 -94t225 94q95 95 95 225t-95 225q-94 94 -225 94t-225 -94t-94 -225z" />
<glyph unicode="q" horiz-adv-x="1236" d="M47 512q0 231 163 394t394 163q233 0 396 -161q161 -159 161 -396v-918h-237v482q-85 -79 -230 -111q-45 -10 -90 -10q-231 0 -394 163t-163 394zM285 512q0 -131 94 -225t225 -94t225 94q95 95 95 225t-95 225q-94 94 -225 94t-225 -94t-94 -225z" />
<glyph unicode="r" horiz-adv-x="749" d="M86 0v1024h238v-102q154 106 374 106v-237q-153 0 -264 -96q-110 -95 -110 -226v-469h-238z" />
<glyph unicode="s" horiz-adv-x="872" d="M51 311h240q2 -55 42 -97t103 -42t100 37q39 39 39 92q0 47 -42 73q-44 26 -115.5 45t-126.5 39.5t-101 54.5q-101 74 -116 208q-1 14 -1 28q0 128 99 220q111 102 266 102q123 0 226 -81q90 -71 112 -167h-239q-20 39 -89 39t-110 -30q-32 -24 -32 -64q0 -12 3 -25 q8 -35 60.5 -55t135 -47.5t136 -56.5t93.5 -70q85 -87 85 -231q0 -150 -117 -241q-110 -87 -268 -87q-145 0 -259 97q-124 106 -124 259z" />
<glyph unicode="t" horiz-adv-x="681" d="M55 786v238h95v367h237v-367h240v-238h-240v-786h-237v786h-95z" />
<glyph unicode="u" horiz-adv-x="1071" d="M70 469v555h237v-557q0 -92 68 -160q65 -65 162 -65q96 0 159 65q68 69 68 160v557h237v-557q0 -189 -135 -329q-135 -138 -329 -138q-191 0 -329 138t-138 331z" />
<glyph unicode="v" horiz-adv-x="1175" d="M35 1024h260l293 -672l293 672h260l-447 -1024h-211z" />
<glyph unicode="w" horiz-adv-x="1769" d="M74 424v600h237v-600q0 -94 66 -160q67 -67 160 -67q94 0 159 67q68 69 68 160v600h242v-600q4 -100 67.5 -163.5t155.5 -63.5t157 67q68 69 68 160v600h240v-600q0 -191 -136 -330q-136 -137 -336 -137t-339 154q-141 -154 -346 -154q-194 0 -329 137q-134 136 -134 330 z" />
<glyph unicode="x" horiz-adv-x="952" d="M68 0l268 512l-268 512h274l133 -250l133 250h275l-273 -512l273 -512h-269l-139 258l-139 -258h-268z" />
<glyph unicode="y" horiz-adv-x="1089" d="M78 455v569h239l2 -569q0 -94 66 -160q68 -68 160 -68q95 0 159 66q68 69 68 160v571h238v-569q0 -256 -192 -391q-64 -46 -152 -66v-404h-240v406q-154 51 -250 173t-98 282z" />
<glyph unicode="z" horiz-adv-x="897" d="M41 0l414 786h-379v238h778l-420 -786h383v-238h-776z" />
<glyph unicode="{" horiz-adv-x="612" d="M43 500v239h66q41 0 60 30t19 54v539q0 138 112 231t269 93v-240q-57 0 -100 -24.5t-43 -80.5v-518q0 -130 -34 -175q-17 -21 -48 -30q77 -25 81 -142q1 -32 1 -60v-506q0 -60 50 -92q38 -23 93 -23v-239q-159 0 -269 93q-112 95 -112 230v537q0 33 -23.5 58.5 t-55.5 25.5h-66z" />
<glyph unicode="|" horiz-adv-x="399" d="M80 -438v2124h237v-2124h-237z" />
<glyph unicode="}" horiz-adv-x="614" d="M43 -205q91 0 129 59q14 21 14 56v506q0 85 10 117q20 68 72 85q-73 19 -80 142q-2 33 -2 63v518q0 55 -43 80t-100 25v240q156 0 269 -93q112 -91 112 -231v-539q0 -25 19.5 -54.5t60.5 -29.5h65v-239h-65q-33 0 -56.5 -25.5t-23.5 -58.5v-537q0 -137 -112 -230 q-110 -93 -269 -93v239z" />
<glyph unicode="~" horiz-adv-x="1040" d="M59 760v145h240v-145q0 -68 49 -68q37 0 60.5 26.5t54.5 60.5q81 89 215 89q124 0 213 -87q88 -86 88 -212v-145h-242v145q0 39 -18.5 54.5t-51 15.5t-56 -27.5t-52.5 -61.5t-73 -61.5t-117.5 -27.5t-128 23.5t-94.5 63.5q-87 87 -87 212z" />
<glyph unicode="&#xa1;" horiz-adv-x="395" d="M70 894q0 -56 37.5 -94t94 -38t94.5 38t38 94t-38 94t-94 38t-94 -38t-38 -94zM84 -408h238v1106h-238v-1106z" />
<glyph unicode="&#xa2;" horiz-adv-x="1212" d="M63 514q0 197 127 354q119 148 316 191v522h237v-522q123 -27 229.5 -108t170.5 -232h-269q-49 68 -131 96v-602q82 33 131 98h267q-63 -152 -169 -234.5t-229 -107.5v-512h-237v512q-194 40 -316 191q-127 154 -127 354zM303 514q0 -102 56.5 -182t146.5 -115v594 q-90 -35 -146.5 -115t-56.5 -182z" />
<glyph unicode="&#xa3;" horiz-adv-x="819" d="M59 498v237h95v398q0 207 164 277q57 24 137 24t137 -21.5t94 -61.5q70 -76 70 -218v-62h-238v62q0 25 -16.5 43t-44.5 18q-29 0 -45.5 -18.5t-16.5 -42.5v-398h236v-237h-236v-260h359v-238h-600v498h-95z" />
<glyph unicode="&#xa5;" horiz-adv-x="1259" d="M43 1434h274l312 -605l311 605h277l-336 -641h239v-238h-362v-72h362v-237h-362v-246h-256v246h-361v237h361v72h-361v238h236z" />
<glyph unicode="&#xa8;" horiz-adv-x="800" d="M72 1490q0 56 36.5 94t94.5 38q57 0 94 -38t37 -94t-37 -94t-94 -38t-94 38t-37 94zM467 1490q0 56 37 94t94 38t94 -38t37 -94t-37 -94t-94 -38t-94 38t-37 94z" />
<glyph unicode="&#xa9;" horiz-adv-x="1634" d="M55 718q0 157 60.5 296t164 242.5t241.5 164t295 60.5t296 -60.5t242.5 -164t164 -243t60.5 -296t-60.5 -294.5t-164 -241.5t-242.5 -164t-296 -60.5t-295 60.5t-241.5 164t-164 241.5t-60.5 295zM301 718q0 -105 41 -199.5t112 -164.5q153 -151 363 -151q104 0 198.5 41 t164.5 110q151 152 151 365q0 104 -41 198.5t-110 164.5q-152 151 -363 151q-210 0 -363 -151q-71 -70 -112 -164.5t-41 -199.5zM342 721q0 199 142 339q140 138 335 138q159 0 285 -100q135 -108 164 -277h-209q-57 166 -240 166q-107 0 -185 -80q-77 -79 -77 -186 q0 -108 77 -187q78 -79 177.5 -79t165 49t90.5 117h201q-39 -174 -170 -278q-124 -99 -279 -99q-196 0 -335 138q-142 139 -142 339z" />
<glyph unicode="&#xab;" horiz-adv-x="1198" d="M45 510l530 512l168 -168l-364 -344l364 -344l-168 -168zM453 510l532 512l166 -168l-363 -344l363 -344l-166 -168z" />
<glyph unicode="&#xad;" horiz-adv-x="897" d="M82 498v237h733v-237h-733z" />
<glyph unicode="&#xae;" horiz-adv-x="1634" d="M55 718q0 157 60.5 296t164 242.5t241.5 164t295 60.5t296 -60.5t242.5 -164t164 -243t60.5 -296t-60.5 -294.5t-164 -241.5t-242.5 -164t-296 -60.5t-295 60.5t-241.5 164t-164 241.5t-60.5 295zM301 718q0 -105 41 -199.5t112 -164.5q153 -151 363 -151q104 0 198.5 41 t164.5 110q151 152 151 365q0 104 -41 198.5t-110 164.5q-152 151 -363 151q-210 0 -363 -151q-71 -70 -112 -164.5t-41 -199.5zM557 354v744h268q214 -6 271 -132q20 -46 20 -107.5t-20.5 -112t-59.5 -72.5q26 -11 47 -56q35 -75 31 -143v-121h-219v111q0 94 -70 94h-49 v-205h-219zM776 772h51q37 0 54.5 12.5t17.5 44.5q0 60 -72 60h-51v-117z" />
<glyph unicode="&#xb1;" horiz-adv-x="839" d="M53 0v238h733v-238h-733zM53 541v237h246v246h238v-246h249v-237h-249v-250h-238v250h-246z" />
<glyph unicode="&#xb4;" horiz-adv-x="471" d="M39 1049l139 342h252l-137 -342h-254z" />
<glyph unicode="&#xb7;" horiz-adv-x="378" d="M57 631q0 57 38 94t94 37t93 -37t37 -94t-36.5 -94t-93 -37t-94.5 37t-38 94z" />
<glyph unicode="&#xb8;" horiz-adv-x="550" d="M59 123h238v-232q80 -23 136 -88t56 -134.5t-20 -113.5t-54 -78q-71 -71 -173 -71h-183v217h162q4 0 16.5 3t12.5 26t-12.5 26t-16.5 3h-162v442z" />
<glyph unicode="&#xbb;" horiz-adv-x="1198" d="M45 166l363 344l-363 344l166 168l532 -512l-532 -512zM453 166l364 344l-364 344l168 168l530 -512l-530 -512z" />
<glyph unicode="&#xbf;" horiz-adv-x="1060" d="M31 508q0 181 113 316q113 137 280 177v62h238v-281h-125q-114 0 -195 -80q-80 -78 -80 -194q0 -115 80 -195t195 -80q156 0 243 142h248q-88 -272 -335 -351q-77 -24 -168.5 -24t-184 40t-160.5 108q-149 149 -149 360zM410 1259q0 56 37.5 94t94 38t93.5 -38t37 -94 t-37 -94.5t-93 -38.5t-94 38.5t-38 94.5z" />
<glyph unicode="&#xc0;" horiz-adv-x="1212" d="M35 0l459 1434h221l459 -1434h-256l-168 514h-295l-164 -514h-256zM326 1866h254l139 -342h-254zM528 717h154l-78 274z" />
<glyph unicode="&#xc1;" horiz-adv-x="1208" d="M35 0l459 1434h221l459 -1434h-256l-168 514h-295l-164 -514h-256zM475 1526h254l139 342h-254zM528 717h154l-78 274z" />
<glyph unicode="&#xc2;" horiz-adv-x="1224" d="M43 0l459 1434h221l459 -1434h-256l-168 514h-295l-164 -514h-256zM258 1575l244 348h221l246 -348h-273l-82 114l-86 -114h-270zM536 717h154l-78 274z" />
<glyph unicode="&#xc3;" horiz-adv-x="1208" d="M35 0l459 1434h221l459 -1434h-256l-168 514h-295l-164 -514h-256zM285 1678q49 88 114.5 132t114.5 44q86 0 146 -35q8 -8 47 55l207 -125q-103 -174 -244 -174q-72 0 -133 35q-6 2 -43 -57zM528 717h154l-78 274z" />
<glyph unicode="&#xc4;" horiz-adv-x="1202" d="M29 0l459 1434h221l459 -1434h-256l-168 514h-295l-164 -514h-256zM267 1709q0 56 36.5 94t94.5 38q57 0 94 -38t37 -94t-37 -94t-94 -38t-94 38t-37 94zM522 717h154l-78 274zM662 1709q0 56 37 94t94 38t94 -38t37 -94t-37 -94t-94 -38t-94 38t-37 94z" />
<glyph unicode="&#xc6;" horiz-adv-x="1687" d="M63 0l459 1434h1102v-246h-745v-430h614v-244h-614v-268h745v-246h-991v514h-150l-164 -514h-256zM565 758h68v213z" />
<glyph unicode="&#xc7;" horiz-adv-x="1576" d="M69 716q0 157 60.5 296t164 242.5t241.5 164t275.5 60.5t240 -33t189.5 -90q171 -111 267 -285h-311q-160 160 -365 160q-212 0 -365 -151q-71 -70 -112 -164.5t-41 -199.5t41 -198.5t112 -163.5q152 -153 365 -153q210 0 367 155h309q-97 -181 -271 -288 q-181 -113 -405 -113q-158 0 -296 60.5t-241.5 164t-164 241.5t-60.5 295zM688 137h238v-232q80 -23 136 -88t56 -134.5t-20 -113.5t-54 -78q-71 -71 -173 -71h-183v217h162q4 0 16.5 3t12.5 26t-12.5 26t-16.5 3h-162v442z" />
<glyph unicode="&#xc8;" horiz-adv-x="1103" d="M59 0v1434h991v-246h-745v-430h614v-244h-614v-268h745v-246h-991zM303 1868h254l139 -342h-254z" />
<glyph unicode="&#xc9;" horiz-adv-x="1091" d="M53 0v1434h991v-246h-745v-430h614v-244h-614v-268h745v-246h-991zM401 1526h254l139 342h-254z" />
<glyph unicode="&#xca;" horiz-adv-x="1091" d="M53 0v1434h991v-246h-745v-430h614v-244h-614v-268h745v-246h-991zM195 1526l244 348h221l246 -348h-273l-82 114l-86 -114h-270z" />
<glyph unicode="&#xcb;" horiz-adv-x="1107" d="M62 0v1434h991v-246h-745v-430h614v-244h-614v-268h745v-246h-991zM238 1707q0 56 36.5 94t94.5 38q57 0 94 -38t37 -94t-37 -94t-94 -38t-94 38t-37 94zM633 1707q0 56 37 94t94 38t94 -38t37 -94t-37 -94t-94 -38t-94 38t-37 94z" />
<glyph unicode="&#xcc;" horiz-adv-x="391" d="M-72 1868h254l139 -342h-254zM74 0v1434h246v-1434h-246z" />
<glyph unicode="&#xcd;" horiz-adv-x="411" d="M82 0v1434h246v-1434h-246zM84 1526h254l139 342h-254z" />
<glyph unicode="&#xce;" horiz-adv-x="385" d="M-147 1577l244 348h221l246 -348h-273l-82 114l-86 -114h-270zM82 0v1434h246v-1434h-246z" />
<glyph unicode="&#xcf;" horiz-adv-x="397" d="M-123 1709q0 56 36.5 94t94.5 38q57 0 94 -38t37 -94t-37 -94t-94 -38t-94 38t-37 94zM80 0v1434h246v-1434h-246zM272 1709q0 56 37 94t94 38t94 -38t37 -94t-37 -94t-94 -38t-94 38t-37 94z" />
<glyph unicode="&#xd0;" horiz-adv-x="1511" d="M53 594v246h189v594h499q147 0 278.5 -56.5t227.5 -153t152.5 -227.5t56.5 -278t-56.5 -278.5t-152.5 -229.5t-227 -154.5t-279 -56.5h-499v594h-189zM485 246h256q198 0 333 138q136 140 136 335t-136 331q-138 138 -333 138h-256v-348h326v-246h-326v-348z" />
<glyph unicode="&#xd1;" horiz-adv-x="1118" d="M68 0v1434h221l526 -902v902h244v-1434h-219l-526 901v-901h-246zM229 1678q49 88 114.5 132t114.5 44q86 0 146 -35q8 -8 47 55l207 -125q-103 -174 -244 -174q-72 0 -133 35q-6 2 -43 -57z" />
<glyph unicode="&#xd2;" horiz-adv-x="1650" d="M63 716q0 157 60.5 296t165 242.5t243 164t293.5 60.5q156 0 295 -60.5t242.5 -164t164 -243t60.5 -296t-60.5 -294.5t-164 -241.5t-242.5 -164t-295 -60.5t-294 60.5t-242.5 164t-165 241.5t-60.5 295zM309 716q0 -105 41 -198.5t112 -163.5q152 -153 363 -153 q104 0 198.5 41t164.5 112q153 152 153 363q0 104 -41 198.5t-112 164.5q-153 151 -363 151t-363 -151q-71 -70 -112 -164.5t-41 -199.5zM565 1917h254l139 -342h-254z" />
<glyph unicode="&#xd3;" horiz-adv-x="1669" d="M71 716q0 157 60.5 296t165 242.5t243 164t293.5 60.5q156 0 295 -60.5t242.5 -164t164 -243t60.5 -296t-60.5 -294.5t-164 -241.5t-242.5 -164t-295 -60.5t-294 60.5t-242.5 164t-165 241.5t-60.5 295zM317 716q0 -105 41 -198.5t112 -163.5q152 -153 363 -153 q104 0 198.5 41t164.5 112q153 152 153 363q0 104 -41 198.5t-112 164.5q-153 151 -363 151t-363 -151q-71 -70 -112 -164.5t-41 -199.5zM713 1577h254l139 342h-254z" />
<glyph unicode="&#xd4;" horiz-adv-x="1634" d="M55 716q0 157 60.5 296t165 242.5t243 164t293.5 60.5q156 0 295 -60.5t242.5 -164t164 -243t60.5 -296t-60.5 -294.5t-164 -241.5t-242.5 -164t-295 -60.5t-294 60.5t-242.5 164t-165 241.5t-60.5 295zM301 716q0 -105 41 -198.5t112 -163.5q152 -153 363 -153 q104 0 198.5 41t164.5 112q153 152 153 363q0 104 -41 198.5t-112 164.5q-153 151 -363 151t-363 -151q-71 -70 -112 -164.5t-41 -199.5zM471 1575l244 348h221l246 -348h-273l-82 114l-86 -114h-270z" />
<glyph unicode="&#xd5;" horiz-adv-x="1656" d="M65 716q0 157 60.5 296t165 242.5t243 164t293.5 60.5q156 0 295 -60.5t242.5 -164t164 -243t60.5 -296t-60.5 -294.5t-164 -241.5t-242.5 -164t-295 -60.5t-294 60.5t-242.5 164t-165 241.5t-60.5 295zM311 716q0 -105 41 -198.5t112 -163.5q152 -153 363 -153 q104 0 198.5 41t164.5 112q153 152 153 363q0 104 -41 198.5t-112 164.5q-153 151 -363 151t-363 -151q-71 -70 -112 -164.5t-41 -199.5zM492 1680q49 88 114.5 132t114.5 44q86 0 146 -35q8 -8 47 55l207 -125q-103 -174 -244 -174q-72 0 -133 35q-6 2 -43 -57z" />
<glyph unicode="&#xd6;" horiz-adv-x="1644" d="M59 716q0 157 60.5 296t165 242.5t243 164t293.5 60.5q156 0 295 -60.5t242.5 -164t164 -243t60.5 -296t-60.5 -294.5t-164 -241.5t-242.5 -164t-295 -60.5t-294 60.5t-242.5 164t-165 241.5t-60.5 295zM305 716q0 -105 41 -198.5t112 -163.5q152 -153 363 -153 q104 0 198.5 41t164.5 112q153 152 153 363q0 104 -41 198.5t-112 164.5q-153 151 -363 151t-363 -151q-71 -70 -112 -164.5t-41 -199.5zM490 1707q0 56 36.5 94t94.5 38q57 0 94 -38t37 -94t-37 -94t-94 -38t-94 38t-37 94zM885 1707q0 56 37 94t94 38t94 -38t37 -94 t-37 -94t-94 -38t-94 38t-37 94z" />
<glyph unicode="&#xd7;" horiz-adv-x="792" d="M51 387l176 178l-174 172l170 168l172 -174l172 174l170 -168l-174 -172l176 -178l-166 -168l-178 178l-176 -178z" />
<glyph unicode="&#xd8;" horiz-adv-x="1636" d="M55 716q0 157 60.5 296t165 242.5t243 164t293.5 60.5q156 0 295 -60.5t242.5 -164t164 -243t60.5 -296t-60.5 -294.5t-164 -241.5t-242.5 -164t-295 -60.5t-294 60.5t-242.5 164t-165 241.5t-60.5 295zM301 716q0 -105 41 -198.5t112 -163.5q152 -153 363 -153 q104 0 198.5 41t164.5 112q153 152 153 363q0 104 -41 198.5t-112 164.5q-153 151 -363 151t-363 -151q-71 -70 -112 -164.5t-41 -199.5zM401 -45l492 1524h252l-490 -1524h-254z" />
<glyph unicode="&#xd9;" horiz-adv-x="1148" d="M76 451v983h245v-983q0 -106 73 -177q74 -73 177 -73q107 0 179.5 72.5t72.5 177.5v983h246v-983q0 -209 -143.5 -352.5t-354.5 -143.5q-208 0 -351.5 143.5t-143.5 352.5zM322 1868h254l139 -342h-254z" />
<glyph unicode="&#xda;" horiz-adv-x="1155" d="M82 451v983h245v-983q0 -106 73 -177q74 -73 177 -73q107 0 179.5 72.5t72.5 177.5v983h246v-983q0 -209 -143.5 -352.5t-354.5 -143.5q-208 0 -351.5 143.5t-143.5 352.5zM465 1524h254l139 342h-254z" />
<glyph unicode="&#xdb;" horiz-adv-x="1153" d="M82 451v983h245v-983q0 -106 73 -177q74 -73 177 -73q107 0 179.5 72.5t72.5 177.5v983h246v-983q0 -209 -143.5 -352.5t-354.5 -143.5q-208 0 -351.5 143.5t-143.5 352.5zM225 1524l244 348h221l246 -348h-273l-82 114l-86 -114h-270z" />
<glyph unicode="&#xdc;" horiz-adv-x="1155" d="M82 451v983h245v-983q0 -106 73 -177q74 -73 177 -73q107 0 179.5 72.5t72.5 177.5v983h246v-983q0 -209 -143.5 -352.5t-354.5 -143.5q-208 0 -351.5 143.5t-143.5 352.5zM258 1709q0 56 36.5 94t94.5 38q57 0 94 -38t37 -94t-37 -94t-94 -38t-94 38t-37 94zM653 1709 q0 56 37 94t94 38t94 -38t37 -94t-37 -94t-94 -38t-94 38t-37 94z" />
<glyph unicode="&#xdd;" horiz-adv-x="1239" d="M37 1434h274l311 -605q212 407 312 605h276l-459 -875v-559h-256v555zM490 1526l139 342h252l-137 -342h-254z" />
<glyph unicode="&#xde;" horiz-adv-x="878" d="M80 0v1434h246v-377h16q215 -4 346 -103q143 -109 143 -311t-150 -313q-134 -99 -339 -99h-16v-231h-246zM326 473q178 0 232 81q22 34 20 91q-5 146 -169 165q-44 5 -83 5v-342z" />
<glyph unicode="&#xdf;" horiz-adv-x="1005" d="M66 0v1434h307q221 0 348 -95.5t127 -306.5q0 -76 -31 -144.5t-72 -101.5q193 -92 193 -360q0 -219 -150 -329q-133 -97 -339 -97h-60v240h62q159 0 217 92q20 33 20 108q0 160 -237 160h-62v258h43q88 0 130 55.5t41 115.5t-22.5 91t-52.5 48q-54 30 -151 30h-74v-1198 h-237z" />
<glyph unicode="&#xe0;" horiz-adv-x="1267" d="M75 514q0 232 164.5 394.5t395.5 162.5q230 0 394 -163q163 -161 163 -394v-514h-238v57q-141 -100 -319 -100q-251 0 -407 162q-153 159 -153 395zM315 514q0 -131 94 -225t226 -94q134 0 226 90q93 91 93 229q0 131 -94 225q-95 95 -225 95q-131 0 -226 -95 q-94 -94 -94 -225zM363 1489h254l139 -342h-254z" />
<glyph unicode="&#xe1;" horiz-adv-x="1259" d="M71 514q0 232 164.5 394.5t395.5 162.5q230 0 394 -163q163 -161 163 -394v-514h-238v57q-141 -100 -319 -100q-251 0 -407 162q-153 159 -153 395zM311 514q0 -131 94 -225t226 -94q134 0 226 90q93 91 93 229q0 131 -94 225q-95 95 -225 95q-131 0 -226 -95 q-94 -94 -94 -225zM504 1147h254l139 342h-254z" />
<glyph unicode="&#xe2;" horiz-adv-x="1263" d="M73 514q0 232 164.5 394.5t395.5 162.5q230 0 394 -163q163 -161 163 -394v-514h-238v57q-141 -100 -319 -100q-251 0 -407 162q-153 159 -153 395zM279 1149l244 348h221l246 -348h-273l-82 114l-86 -114h-270zM313 514q0 -131 94 -225t226 -94q134 0 226 90 q93 91 93 229q0 131 -94 225q-95 95 -225 95q-131 0 -226 -95q-94 -94 -94 -225z" />
<glyph unicode="&#xe3;" horiz-adv-x="1267" d="M75 514q0 232 164.5 394.5t395.5 162.5q230 0 394 -163q163 -161 163 -394v-514h-238v57q-141 -100 -319 -100q-251 0 -407 162q-153 159 -153 395zM297 1252q49 88 114.5 132t114.5 44q86 0 146 -35q8 -8 47 55l207 -125q-103 -174 -244 -174q-72 0 -133 35 q-6 2 -43 -57zM315 514q0 -131 94 -225t226 -94q134 0 226 90q93 91 93 229q0 131 -94 225q-95 95 -225 95q-131 0 -226 -95q-94 -94 -94 -225z" />
<glyph unicode="&#xe4;" horiz-adv-x="1269" d="M75 514q0 232 164.5 394.5t395.5 162.5q230 0 394 -163q163 -161 163 -394v-514h-238v57q-141 -100 -319 -100q-251 0 -407 162q-153 159 -153 395zM301 1281q0 56 36.5 94t94.5 38q57 0 94 -38t37 -94t-37 -94t-94 -38t-94 38t-37 94zM315 514q0 -131 94 -225t226 -94 q134 0 226 90q93 91 93 229q0 131 -94 225q-95 95 -225 95q-131 0 -226 -95q-94 -94 -94 -225zM696 1281q0 56 37 94t94 38t94 -38t37 -94t-37 -94t-94 -38t-94 38t-37 94z" />
<glyph unicode="&#xe6;" horiz-adv-x="2140" d="M67 514q0 232 164.5 394.5t395.5 162.5q230 0 394 -163q163 -161 163 -394v-514h-238v57q-141 -100 -319 -100q-251 0 -407 162q-153 159 -153 395zM307 514q0 -131 94 -225t226 -94q134 0 226 90q93 91 93 229q0 131 -94 225q-95 95 -225 95q-131 0 -226 -95 q-94 -94 -94 -225zM946 514q0 234 164 394q166 163 395 163q248 0 406 -173q149 -163 153 -400h-878q4 -125 98 -215q92 -88 209.5 -88t193.5 52t111 140h260q-98 -328 -382 -407q-85 -23 -186.5 -23t-202.5 44t-177 119q-164 162 -164 394zM1231 705h545q-78 131 -271 133 q-197 -6 -274 -133z" />
<glyph unicode="&#xe7;" horiz-adv-x="1193" d="M57 514q0 234 164 394q166 163 395 163q259 0 424 -191q58 -67 96 -161h-268q-85 115 -252 115q-130 0 -225 -95q-94 -94 -94 -225t94 -225t225 -94q169 0 252 116h266q-113 -266 -362 -333q-76 -21 -174.5 -21t-199.5 44t-177 119q-164 162 -164 394zM491 123h238v-232 q80 -23 136 -88t56 -134.5t-20 -113.5t-54 -78q-71 -71 -173 -71h-183v217h162q4 0 16.5 3t12.5 26t-12.5 26t-16.5 3h-162v442z" />
<glyph unicode="&#xe8;" horiz-adv-x="1236" d="M59 514q0 234 164 394q166 163 395 163q248 0 406 -173q149 -163 153 -400h-878q4 -125 98 -215q92 -88 209.5 -88t193.5 52t111 140h260q-98 -328 -382 -407q-85 -23 -186.5 -23t-202.5 44t-177 119q-164 162 -164 394zM344 705h545q-78 131 -271 133q-197 -6 -274 -133 zM356 1487h254l139 -342h-254z" />
<glyph unicode="&#xe9;" horiz-adv-x="1236" d="M59 514q0 234 164 394q166 163 395 163q248 0 406 -173q149 -163 153 -400h-878q4 -125 98 -215q92 -88 209.5 -88t193.5 52t111 140h260q-98 -328 -382 -407q-85 -23 -186.5 -23t-202.5 44t-177 119q-164 162 -164 394zM344 705h545q-78 131 -271 133q-197 -6 -274 -133 zM487 1145h254l139 342h-254z" />
<glyph unicode="&#xea;" horiz-adv-x="1236" d="M59 514q0 234 164 394q166 163 395 163q248 0 406 -173q149 -163 153 -400h-878q4 -125 98 -215q92 -88 209.5 -88t193.5 52t111 140h260q-98 -328 -382 -407q-85 -23 -186.5 -23t-202.5 44t-177 119q-164 162 -164 394zM260 1151l244 348h221l246 -348h-273l-82 114 l-86 -114h-270zM344 705h545q-78 131 -271 133q-197 -6 -274 -133z" />
<glyph unicode="&#xeb;" horiz-adv-x="1236" d="M59 514q0 234 164 394q166 163 395 163q248 0 406 -173q149 -163 153 -400h-878q4 -125 98 -215q92 -88 209.5 -88t193.5 52t111 140h260q-98 -328 -382 -407q-85 -23 -186.5 -23t-202.5 44t-177 119q-164 162 -164 394zM291 1281q0 56 36.5 94t94.5 38q57 0 94 -38 t37 -94t-37 -94t-94 -38t-94 38t-37 94zM344 705h545q-78 131 -271 133q-197 -6 -274 -133zM686 1281q0 56 37 94t94 38t94 -38t37 -94t-37 -94t-94 -38t-94 38t-37 94z" />
<glyph unicode="&#xec;" horiz-adv-x="387" d="M-76 1446h254l139 -342h-254zM74 0v1022h237v-1022h-237z" />
<glyph unicode="&#xed;" horiz-adv-x="401" d="M82 1106l139 342h254l-139 -342h-254zM84 0v1022h238v-1022h-238z" />
<glyph unicode="&#xee;" horiz-adv-x="399" d="M-149 1110l244 348h221l246 -348h-273l-82 114l-86 -114h-270zM82 0v1024h237v-1024h-237z" />
<glyph unicode="&#xef;" horiz-adv-x="399" d="M-114 1281q0 56 36.5 94t94.5 38q57 0 94 -38t37 -94t-37 -94t-94 -38t-94 38t-37 94zM82 0v1024h237v-1024h-237zM281 1281q0 56 37 94t94 38t94 -38t37 -94t-37 -94t-94 -38t-94 38t-37 94z" />
<glyph unicode="&#xf1;" horiz-adv-x="1085" d="M76 0v1024h237v-59q82 102 228 106q189 0 329 -137q138 -137 138 -330l2 -604h-242l-2 604q0 91 -66 158q-65 67 -159 67q-91 0 -160 -69q-68 -68 -68 -156l2 -604h-239zM205 1252q49 88 114.5 132t114.5 44q86 0 146 -35q8 -8 47 55l207 -125q-103 -174 -244 -174 q-72 0 -133 35q-6 2 -43 -57z" />
<glyph unicode="&#xf2;" d="M57 514q0 234 164 394q166 163 395 163q232 0 394.5 -162.5t162.5 -394.5q0 -230 -163 -394q-161 -163 -394 -163q-230 0 -395 163q-164 162 -164 394zM297 514q0 -131 94 -225t225 -94q132 0 226 94t94 225t-94 225q-95 95 -226 95q-130 0 -225 -95q-94 -94 -94 -225z M352 1487h254l139 -342h-254z" />
<glyph unicode="&#xf3;" d="M57 514q0 234 164 394q166 163 395 163q232 0 394.5 -162.5t162.5 -394.5q0 -230 -163 -394q-161 -163 -394 -163q-230 0 -395 163q-164 162 -164 394zM297 514q0 -131 94 -225t225 -94q132 0 226 94t94 225t-94 225q-95 95 -226 95q-130 0 -225 -95q-94 -94 -94 -225z M473 1145l139 342h252l-137 -342h-254z" />
<glyph unicode="&#xf4;" d="M57 514q0 234 164 394q166 163 395 163q232 0 394.5 -162.5t162.5 -394.5q0 -230 -163 -394q-161 -163 -394 -163q-230 0 -395 163q-164 162 -164 394zM258 1151l244 348h221l246 -348h-273l-82 114l-86 -114h-270zM297 514q0 -131 94 -225t225 -94q132 0 226 94t94 225 t-94 225q-95 95 -226 95q-130 0 -225 -95q-94 -94 -94 -225z" />
<glyph unicode="&#xf5;" d="M57 514q0 234 164 394q166 163 395 163q232 0 394.5 -162.5t162.5 -394.5q0 -230 -163 -394q-161 -163 -394 -163q-230 0 -395 163q-164 162 -164 394zM285 1258q49 88 114.5 132t114.5 44q86 0 146 -35q8 -8 47 55l207 -125q-103 -174 -244 -174q-72 0 -133 35 q-6 2 -43 -57zM297 514q0 -131 94 -225t225 -94q132 0 226 94t94 225t-94 225q-95 95 -226 95q-130 0 -225 -95q-94 -94 -94 -225z" />
<glyph unicode="&#xf6;" d="M57 514q0 234 164 394q166 163 395 163q232 0 394.5 -162.5t162.5 -394.5q0 -230 -163 -394q-161 -163 -394 -163q-230 0 -395 163q-164 162 -164 394zM285 1283q0 56 36.5 94t94.5 38q57 0 94 -38t37 -94t-37 -94t-94 -38t-94 38t-37 94zM297 514q0 -131 94 -225 t225 -94q132 0 226 94t94 225t-94 225q-95 95 -226 95q-130 0 -225 -95q-94 -94 -94 -225zM680 1283q0 56 37 94t94 38t94 -38t37 -94t-37 -94t-94 -38t-94 38t-37 94z" />
<glyph unicode="&#xf7;" horiz-adv-x="845" d="M62 391v238h733v-238h-733zM304 132q0 56 36.5 94t94.5 38q57 0 94 -38t37 -94t-37 -94t-94 -38t-94 38t-37 94zM304 892q0 56 36.5 94t94.5 38q57 0 94 -38t37 -94t-37 -94t-94 -38t-94 38t-37 94z" />
<glyph unicode="&#xf8;" horiz-adv-x="1236" d="M59 514q0 234 164 394q166 163 395 163q232 0 394.5 -162.5t162.5 -394.5q0 -230 -163 -394q-161 -163 -394 -163q-230 0 -395 163q-164 162 -164 394zM299 514q0 -131 94 -225t225 -94q132 0 226 94t94 225t-94 225q-95 95 -226 95q-130 0 -225 -95q-94 -94 -94 -225z M309 -186l467 1434h252l-465 -1434h-254z" />
<glyph unicode="&#xf9;" horiz-adv-x="1073" d="M70 469v555h237v-557q0 -92 68 -160q65 -65 162 -65q96 0 159 65q68 69 68 160v557h237v-557q0 -189 -135 -329q-135 -138 -329 -138q-191 0 -329 138t-138 331zM281 1487h254l139 -342h-254z" />
<glyph unicode="&#xfa;" horiz-adv-x="1069" d="M70 469v555h237v-557q0 -92 68 -160q65 -65 162 -65q96 0 159 65q68 69 68 160v557h237v-557q0 -189 -135 -329q-135 -138 -329 -138q-191 0 -329 138t-138 331zM418 1147l139 342h252l-137 -342h-254z" />
<glyph unicode="&#xfb;" horiz-adv-x="1073" d="M70 469v555h237v-557q0 -92 68 -160q65 -65 162 -65q96 0 159 65q68 69 68 160v557h237v-557q0 -189 -135 -329q-135 -138 -329 -138q-191 0 -329 138t-138 331zM191 1151l244 348h221l246 -348h-273l-82 114l-86 -114h-270z" />
<glyph unicode="&#xfc;" horiz-adv-x="1073" d="M70 469v555h237v-557q0 -92 68 -160q65 -65 162 -65q96 0 159 65q68 69 68 160v557h237v-557q0 -189 -135 -329q-135 -138 -329 -138q-191 0 -329 138t-138 331zM209 1281q0 56 36.5 94t94.5 38q57 0 94 -38t37 -94t-37 -94t-94 -38t-94 38t-37 94zM604 1281q0 56 37 94 t94 38t94 -38t37 -94t-37 -94t-94 -38t-94 38t-37 94z" />
<glyph unicode="&#xfd;" horiz-adv-x="1097" d="M82 455v569h239l2 -569q0 -94 66 -160q68 -68 160 -68q95 0 159 66q68 69 68 160v571h238v-569q0 -256 -192 -391q-64 -46 -152 -66v-404h-240v406q-154 51 -250 173t-98 282zM428 1104l139 342h252l-137 -342h-254z" />
<glyph unicode="&#xfe;" horiz-adv-x="1239" d="M78 -393v1784h237v-422q146 102 320 102q230 0 394 -163q163 -161 163 -394q0 -231 -163 -394t-394 -163q-174 0 -320 98v-448h-237zM315 514q0 -130 95 -225q94 -94 225 -94t225 94t94 225t-94 225q-95 95 -209 95t-194 -54q-127 -87 -142 -243v-23z" />
<glyph unicode="&#xff;" horiz-adv-x="1087" d="M76 455v569h239l2 -569q0 -94 66 -160q68 -68 160 -68q95 0 159 66q68 69 68 160v571h238v-569q0 -256 -192 -391q-64 -46 -152 -66v-404h-240v406q-154 51 -250 173t-98 282zM222 1283q0 56 36.5 94t94.5 38q57 0 94 -38t37 -94t-37 -94t-94 -38t-94 38t-37 94z M617 1283q0 56 37 94t94 38t94 -38t37 -94t-37 -94t-94 -38t-94 38t-37 94z" />
<glyph unicode="&#x152;" horiz-adv-x="1794" d="M70 717q0 147 56 278t153.5 228.5t228.5 154t278 56.5h936v-246h-747v-430h616v-244h-616v-268h747v-246h-936q-147 0 -278 56.5t-228.5 153.5t-153.5 228t-56 279zM317 715q0 -186 117 -319q118 -134 297 -146v932q-180 -12 -297 -148q-117 -135 -117 -319z" />
<glyph unicode="&#x153;" horiz-adv-x="2097" d="M53 514q0 234 164 394q166 163 395 163q232 0 394.5 -162.5t162.5 -394.5q0 -230 -163 -394q-161 -163 -394 -163q-230 0 -395 163q-164 162 -164 394zM293 514q0 -131 94 -225t225 -94q132 0 226 94t94 225t-94 225q-95 95 -226 95q-130 0 -225 -95q-94 -94 -94 -225z M925 514q0 234 164 394q166 163 395 163q248 0 406 -173q149 -163 153 -400h-878q4 -125 98 -215q92 -88 209.5 -88t193.5 52t111 140h260q-98 -328 -382 -407q-85 -23 -186.5 -23t-202.5 44t-177 119q-164 162 -164 394zM1210 705h545q-78 131 -271 133q-197 -6 -274 -133z " />
<glyph unicode="&#x178;" horiz-adv-x="1226" d="M31 1434h274l311 -605q212 407 312 605h276l-459 -875v-559h-256v555zM287 1709q0 56 36.5 94t94.5 38q57 0 94 -38t37 -94t-37 -94t-94 -38t-94 38t-37 94zM682 1709q0 56 37 94t94 38t94 -38t37 -94t-37 -94t-94 -38t-94 38t-37 94z" />
<glyph unicode="&#x2c6;" horiz-adv-x="794" d="M41 1479l244 348h221l246 -348h-273l-82 114l-86 -114h-270z" />
<glyph unicode="&#x2dc;" horiz-adv-x="712" d="M41 1561q49 88 114.5 132t114.5 44q86 0 146 -35q8 -8 47 55l207 -125q-103 -174 -244 -174q-72 0 -133 35q-6 2 -43 -57z" />
<glyph unicode="&#x2000;" horiz-adv-x="962" />
<glyph unicode="&#x2001;" horiz-adv-x="1925" />
<glyph unicode="&#x2002;" horiz-adv-x="962" />
<glyph unicode="&#x2003;" horiz-adv-x="1925" />
<glyph unicode="&#x2004;" horiz-adv-x="641" />
<glyph unicode="&#x2005;" horiz-adv-x="481" />
<glyph unicode="&#x2006;" horiz-adv-x="320" />
<glyph unicode="&#x2007;" horiz-adv-x="320" />
<glyph unicode="&#x2008;" horiz-adv-x="240" />
<glyph unicode="&#x2009;" horiz-adv-x="385" />
<glyph unicode="&#x200a;" horiz-adv-x="106" />
<glyph unicode="&#x2010;" horiz-adv-x="897" d="M82 498v237h733v-237h-733z" />
<glyph unicode="&#x2011;" horiz-adv-x="897" d="M82 498v237h733v-237h-733z" />
<glyph unicode="&#x2012;" horiz-adv-x="897" d="M82 498v237h733v-237h-733z" />
<glyph unicode="&#x2013;" horiz-adv-x="1030" d="M82 420v237h866v-237h-866z" />
<glyph unicode="&#x2014;" horiz-adv-x="1177" d="M82 420v237h1014v-237h-1014z" />
<glyph unicode="&#x2018;" horiz-adv-x="333" d="M35 1178v71q0 51 10 85t48 65t61.5 34t31.5 -11q18 -31 -10 -95q-2 -8 0 -11t29 -7t47 -18.5t30 -34.5q17 -30 17 -82.5t-38 -91t-94 -38.5t-94 38t-38 96z" />
<glyph unicode="&#x2019;" horiz-adv-x="327" d="M31 1305q0 52 37.5 90.5t94 38.5t94.5 -38t38 -96v-71q0 -51 -10.5 -85t-48 -65t-61 -34t-31.5 11q-20 33 10 95q2 8 0 11t-29 7t-47.5 18.5t-30.5 34.5q-16 31 -16 83z" />
<glyph unicode="&#x201a;" horiz-adv-x="327" d="M31 136q0 52 37.5 90t94 38t94.5 -38t38 -95v-72q0 -51 -10.5 -84.5t-48 -64.5t-61 -34t-31.5 12q-20 32 10 94q2 8 0 11t-29 7t-47.5 18.5t-30.5 33.5q-16 32 -16 84z" />
<glyph unicode="&#x201c;" horiz-adv-x="690" d="M49 1178v71q0 51 10.5 85t48 65t61.5 34t32 -11q18 -34 -11 -95q-2 -8 0.5 -11t29 -7t47 -18.5t30.5 -34.5q16 -31 16 -83t-37.5 -90.5t-94 -38.5t-94.5 38t-38 96zM377 1178v71q0 51 10 85t48 65t61.5 34t31.5 -11q18 -31 -10 -95q-2 -8 0 -11t29 -7t47 -18.5t30 -34.5 q17 -30 17 -82.5t-38 -91t-94 -38.5t-94 38t-38 96z" />
<glyph unicode="&#x201d;" horiz-adv-x="681" d="M45 1304.5q0 52.5 38 91t94 38.5t94 -38t38 -96v-71q0 -51 -10 -85t-48 -65t-61.5 -34t-31.5 11q-18 33 10 95q2 8 0 11t-29 7t-47 18.5t-30 34.5q-17 30 -17 82.5zM373 1305q0 52 38 90.5t94 38.5t94 -38t38 -96v-71q0 -51 -10.5 -85t-48 -65t-61 -34t-31.5 11 q-20 33 10 95q2 8 0 11t-29 7t-47.5 18.5t-30.5 34.5q-16 31 -16 83z" />
<glyph unicode="&#x201e;" horiz-adv-x="681" d="M45 133.5q0 52.5 38 90.5t94 38t94 -38t38 -95v-72q0 -51 -10 -84.5t-48 -64.5t-61.5 -34t-31.5 12q-18 32 10 94q2 8 0 11t-29 7t-47 18.5t-30 33.5q-17 31 -17 83.5zM373 134q0 52 38 90t94 38t94 -38t38 -95v-72q0 -51 -10.5 -84.5t-48 -64.5t-61 -34t-31.5 12 q-20 32 10 94q2 8 0 11t-29 7t-47.5 18.5t-30.5 33.5q-16 32 -16 84z" />
<glyph unicode="&#x2022;" horiz-adv-x="536" d="M57 603q0 91 60.5 150.5t151.5 59.5t150.5 -59.5t59.5 -150.5t-59.5 -151.5t-150.5 -60.5t-151.5 60.5t-60.5 151.5z" />
<glyph unicode="&#x2026;" horiz-adv-x="1165" d="M76 132q0 56 38 94t94 38t94 -38t38 -94t-38 -94t-94 -38t-94 38t-38 94zM442 132q0 56 38 94t94 38t93.5 -38t37.5 -94t-37 -94t-93.5 -38t-94.5 38t-38 94zM827 132q0 56 37 94t94 38t94.5 -38t37.5 -94t-37 -94t-95 -38q-57 0 -94 38t-37 94z" />
<glyph unicode="&#x202f;" horiz-adv-x="385" />
<glyph unicode="&#x2039;" horiz-adv-x="761" d="M31 510l532 512l166 -168l-362 -344l362 -344l-166 -168z" />
<glyph unicode="&#x203a;" horiz-adv-x="761" d="M31 166l362 344l-362 344l166 168l532 -512l-532 -512z" />
<glyph unicode="&#x205f;" horiz-adv-x="481" />
<glyph unicode="&#x20ac;" horiz-adv-x="1685" d="M45 430v238h160q-2 37 -2 52t2 68h-160v238h223q143 312 474 419q106 34 223 34q219 0 408 -123q171 -111 267 -285h-311q-160 160 -364 160q-127 0 -233.5 -56.5t-178.5 -148.5h471v-238h-573q-5 -53 -5 -68t3 -52h575v-238h-489q70 -104 182 -166.5t248 -62.5 q211 0 366 155h309q-96 -181 -270 -288q-181 -113 -405 -113q-234 0 -429 133q-188 130 -276 342h-215z" />
<glyph unicode="&#xe000;" horiz-adv-x="1024" d="M0 0v1024h1024v-1024h-1024z" />
<glyph unicode="&#xfb01;" horiz-adv-x="833" d="M57 498v237h95v398q0 207 164 277q57 24 137 24t137 -21.5t94 -61.5q70 -76 70 -218v-123h-238v123q0 25 -16.5 43t-44.5 18q-29 0 -45.5 -18.5t-16.5 -42.5v-398h361v-735h-238v498h-123v-498h-241v498h-95z" />
<glyph unicode="&#xfb02;" horiz-adv-x="819" d="M61 498v237h93v355q0 126 88 212q90 89 213 89t213 -89q88 -86 88 -212v-1090h-238v1090q0 25 -17.5 43t-43.5 18q-27 0 -44.5 -18.5t-17.5 -42.5v-355h84v-237h-84v-498h-241v498h-93z" />
</font>
</defs>
</svg>
