<?xml version="1.0" standalone="no"?>
<!DOCTYPE svg PUBLIC "-//W3C//DTD SVG 1.1//EN" "http://www.w3.org/Graphics/SVG/1.1/DTD/svg11.dtd" >
<svg xmlns="http://www.w3.org/2000/svg">
<metadata></metadata>
<defs>
<font id="opificioregular" horiz-adv-x="1140" >
<font-face units-per-em="2048" ascent="1638" descent="-410" />
<missing-glyph horiz-adv-x="686" />
<glyph horiz-adv-x="2048" />
<glyph horiz-adv-x="2048" />
<glyph unicode="&#xd;" horiz-adv-x="872" />
<glyph unicode=" "  horiz-adv-x="686" />
<glyph unicode="&#x09;" horiz-adv-x="686" />
<glyph unicode="&#xa0;" horiz-adv-x="686" />
<glyph unicode="!" horiz-adv-x="282" d="M53 86q0 37 24.5 61.5t61.5 24.5t61.5 -24.5t24.5 -61.5t-24.5 -61.5t-61.5 -24.5t-61.5 24.5t-24.5 61.5zM70 268v1166h143v-1166h-143z" />
<glyph unicode="&#x22;" horiz-adv-x="493" d="M82 1100v334h127v-334h-127zM287 1100v334h127v-334h-127z" />
<glyph unicode="#" horiz-adv-x="1157" d="M63 561v144h265l51 176h-246v143h285l117 410h151l-117 -410h176l117 410h152l-117 -410h209v-143h-248l-51 -176h229v-144h-270l-158 -561h-151l157 561h-176l-157 -561h-152l158 561h-224zM479 705h176l52 176h-177z" />
<glyph unicode="$" horiz-adv-x="1093" d="M37 428h143q0 -138 111 -238q83 -74 201 -94v615q-84 29 -168 66.5t-154 100t-90 164.5q-10 88 26 168q72 164 259 236q61 25 127 33v104h143v-106q139 -18 252 -127q57 -54 89 -113t38 -100h-158q-61 152 -221 190v-520q14 -4 73.5 -22.5t145.5 -70.5t142.5 -134 t56.5 -196.5t-41 -192.5q-83 -158 -269 -211q-53 -16 -108 -25v-107h-143v107q-172 21 -296 128q-71 62 -115 150.5t-44 194.5zM229 1053q16 -72 83 -114t159 -75l21 -8v479q-101 -18 -163 -67q-124 -99 -100 -215zM635 100q94 14 154.5 55.5t90 91.5t29.5 135t-55 146.5 t-141 100.5q-37 18 -78 35v-564z" />
<glyph unicode="%" horiz-adv-x="729" d="M55 0l461 1434h158l-467 -1434h-152zM55 1350q0 37 24.5 61.5t61.5 24.5t61.5 -25t24.5 -61q0 -37 -24.5 -61.5t-61.5 -24.5t-61.5 24.5t-24.5 61.5zM504 86q0 37 24.5 61.5t61.5 24.5t61.5 -24.5t24.5 -61.5t-24.5 -61.5t-61.5 -24.5t-61.5 24.5t-24.5 61.5z" />
<glyph unicode="&#x26;" horiz-adv-x="1298" d="M60 419q17 203 194 341l127 104l-35 37q-59 66 -92 122t-33 118.5t22.5 116t61.5 92.5q84 84 203 84q121 0 205 -84t84 -205q0 -145 -150 -252l-63 -45l383 -424l200 205l103 -103l-207 -209l203 -223l-107 -94l-196 217l-134 -131q-135 -135 -324 -135q-192 0 -325 133 q-136 136 -120 335zM196 402q-11 -118 89 -214q87 -91 221 -93q130 -2 223 91l137 138l-383 440l-131 -111q-145 -122 -156 -251zM365 1149q2 -55 34.5 -96t61.5 -70l28 -31l44 28q60 37 89 82.5t29 93.5t-42 90t-101 42t-102 -42t-41 -97z" />
<glyph unicode="'" horiz-adv-x="286" d="M82 1100v334h127v-334h-127z" />
<glyph unicode="(" horiz-adv-x="407" d="M74 -143v1529q0 128 90 214q91 88 215 88v-146q-64 0 -113 -44q-49 -46 -49 -112v-1529q0 -65 49 -111q50 -45 113 -45v-145q-126 0 -215 87q-90 88 -90 214z" />
<glyph unicode=")" horiz-adv-x="407" d="M33 -299q63 0 113 45q49 46 49 111v1529q0 66 -49 112q-49 44 -113 44v146q124 0 215 -88q90 -86 90 -214v-1529q0 -126 -90 -214q-89 -87 -215 -87v145z" />
<glyph unicode="*" horiz-adv-x="430" d="M37 1190l100 57l-100 58l37 67l102 -59v121h76v-121l104 59l37 -67l-102 -58l102 -57l-37 -64l-104 58v-119h-76v119l-102 -58z" />
<glyph unicode="+" horiz-adv-x="729" d="M16 557v143h275v275h143v-275h281v-143h-281v-281h-143v281h-275z" />
<glyph unicode="," horiz-adv-x="274" d="M51 86q0 37 24.5 61.5t61.5 24.5t61.5 -24.5t24.5 -61.5v-80q0 -90 -56 -121t-70.5 -14.5t1.5 39t27.5 42t11.5 48.5q-37 0 -61.5 24.5t-24.5 61.5z" />
<glyph unicode="-" horiz-adv-x="862" d="M82 557v143h698v-143h-698z" />
<glyph unicode="." horiz-adv-x="288" d="M59 86q0 37 25 61.5t61 24.5q37 0 61.5 -24.5t24.5 -61.5t-24.5 -61.5t-61.5 -24.5t-61.5 24.5t-24.5 61.5z" />
<glyph unicode="/" horiz-adv-x="638" d="M10 0l467 1434h152l-467 -1434h-152z" />
<glyph unicode="0" horiz-adv-x="1644" d="M57 717q0 158 60.5 297t165 243.5t244 165t296.5 60.5q158 0 297.5 -60.5t243.5 -165t164.5 -244t60.5 -296.5q0 -158 -60.5 -297t-164.5 -243.5t-243.5 -165t-297.5 -60.5t-297 60.5t-243.5 165t-165 243.5t-60.5 297zM201 717q0 -127 49 -241t134 -198.5t198.5 -134 t240.5 -49.5t240 49.5t198 134t134 198.5t49 241q0 254 -183 437q-85 85 -198 134t-240 49t-240.5 -49t-198.5 -134q-183 -183 -183 -437z" />
<glyph unicode="1" horiz-adv-x="438" d="M8 1292v142h350v-1434h-143v1292h-207z" />
<glyph unicode="2" horiz-adv-x="1036" d="M37 0v143l702 662q92 92 92 221q0 127 -92 219q-96 92 -219 92q-129 0 -221 -92q-83 -83 -92 -209h-144q4 182 134 312q133 133 321.5 133t321.5 -133t133 -321q0 -191 -133 -320l-594 -564h745v-143h-954z" />
<glyph unicode="3" horiz-adv-x="1214" d="M55 510h144q0 -174 123 -295q124 -123 296 -123q173 0 298 123q122 121 122 297q0 181 -137 306q-72 65 -172 87q-109 18 -205 4v154l310 227h-697v144h907v-2l3 2v-144l-285 -233q145 -37 255 -147q165 -163 165 -398t-165 -398q-166 -165 -399 -165q-232 0 -398 165 q-165 163 -165 396z" />
<glyph unicode="4" horiz-adv-x="995" d="M27 258l284 1176h148l-250 -1033h461v252h143v-252h168v-143h-168v-258h-143v258h-643z" />
<glyph unicode="5" horiz-adv-x="1220" d="M117 510h143q0 -172 123 -295t297 -123t297 123t123 297t-123 297t-307 123q-98 0 -184.5 -34t-137.5 -103h-143l127 639h712v-144h-598l-57 -297q135 84 291 82q232 0 398 -165q165 -163 165 -398t-165 -398q-166 -165 -398 -165q-234 0 -398.5 164.5t-164.5 396.5z" />
<glyph unicode="6" horiz-adv-x="1239" d="M63 514v406q0 231 165 398q164 165 399 165q229 0 389 -160l-98 -100q-55 53 -130.5 84t-160.5 30q-177 0 -297 -121q-123 -122 -123 -296v-31q75 90 189 139t231 49q232 0 398 -165q165 -163 165 -398q0 -233 -165 -398t-398 -165q-235 0 -399 165q-165 167 -165 398z M207 514q0 -176 123 -297q124 -123 297 -123q172 0 297 123q123 122 123 297t-123 297q-125 123 -297 123q-173 0 -297 -123q-123 -121 -123 -297z" />
<glyph unicode="7" horiz-adv-x="1013" d="M47 0l707 1290h-707v144h961l-787 -1434h-174z" />
<glyph unicode="8" horiz-adv-x="1216" d="M45 514q0 235 165 398q91 91 185 122q-61 74 -61 181.5t80 187.5t194 80q115 0 195 -80t80 -187.5t-62 -181.5q94 -31 178 -115q172 -170 172 -405q0 -232 -165 -398q-163 -165 -398 -165q-233 0 -398 165t-165 398zM188 514q0 -175 124 -297q124 -123 296 -123 q173 0 298 123q122 121 122 297t-122 297q-120 119 -288 123h-10q-172 0 -296 -123q-124 -122 -124 -297zM477 1208q0 -53 39 -92t92 -39h10q49 4 85 41t36 90t-38.5 92t-92.5 39q-53 0 -92 -39t-39 -92z" />
<glyph unicode="9" horiz-adv-x="1239" d="M49 920q0 233 165 398t398 165q235 0 398 -165q166 -167 166 -398v-25q-2 -500 -45.5 -601t-120.5 -178q-163 -165 -398 -165q-229 0 -389 160l99 100q55 -53 130 -84t160 -31q175 0 298 121q122 121 122 297v29q-10 -10 -22 -23q-164 -164 -398 -164q-233 0 -398 165 t-165 399zM193 920q0 -175 122.5 -297.5t296.5 -122.5q175 0 297.5 122.5t122.5 297.5q0 174 -122.5 296.5t-297.5 122.5q-174 0 -296.5 -122.5t-122.5 -296.5z" />
<glyph unicode=":" horiz-adv-x="296" d="M63 86q0 37 25 61.5t62 24.5t61.5 -24.5t24.5 -61.5t-25 -61.5t-61 -24.5q-37 0 -62 24.5t-25 61.5zM63 938q0 37 25 61.5t62 24.5t61.5 -24.5t24.5 -61.5t-25 -61.5t-61 -24.5q-37 0 -62 24.5t-25 61.5z" />
<glyph unicode=";" horiz-adv-x="284" d="M51 86q0 37 24.5 61.5t61.5 24.5t61.5 -24.5t24.5 -61.5v-80q0 -66 -51 -98q-51 -27 -65.5 -10.5t8.5 36.5q49 27 35 66q-99 0 -99 86zM51 938q0 37 24.5 61.5t61.5 24.5t61.5 -24.5t24.5 -61.5t-24.5 -61.5t-61.5 -24.5t-61.5 24.5t-24.5 61.5z" />
<glyph unicode="&#x3c;" horiz-adv-x="897" d="M6 436v158l813 352v-158l-631 -274l631 -272v-158z" />
<glyph unicode="=" horiz-adv-x="1138" d="M82 299v143h975v-143h-975zM82 586v143h975v-143h-975z" />
<glyph unicode="&#x3e;" horiz-adv-x="901" d="M82 84v158l631 272l-631 274v158l813 -352v-158z" />
<glyph unicode="?" horiz-adv-x="1015" d="M16 1139q57 139 180 217t283 78q209 0 357.5 -148.5t148.5 -357.5q0 -194 -127 -336q-125 -139 -313 -164v-160h-144v291h78q154 0 261.5 107.5t107.5 261.5q0 155 -108 261q-108 107 -261 107q-215 0 -311 -157h-152zM389 86q0 37 24.5 61.5t61.5 24.5t61.5 -24.5 t24.5 -61.5t-24.5 -61.5t-61.5 -24.5t-61.5 24.5t-24.5 61.5z" />
<glyph unicode="@" horiz-adv-x="1656" d="M57 716.5q0 157.5 60.5 297t165 244t244 165t296.5 60.5q158 0 297.5 -60.5t243.5 -165t164.5 -244t60.5 -296.5v-551q0 -88 -63.5 -151.5t-151.5 -63.5t-152 63q-61 62 -61 152v209q-146 -139 -338 -137q-199 0 -339 140t-140 338t140 340t339 142t340.5 -141.5 t141.5 -339.5v-551q0 -29 20.5 -49.5t48.5 -20.5q29 0 50.5 20.5t21.5 49.5v551q0 256 -183 439t-440 183q-256 0 -439 -183t-183 -439q0 -258 183 -439q185 -184 439 -184v-143q-158 0 -297 60.5t-243.5 165t-165 243.5t-60.5 296.5zM485 717q0 -139 100 -239 q99 -99 238 -99q140 0 239 99t99 239q0 139 -99 238q-100 100 -239 100q-138 0 -238 -100t-100 -238z" />
<glyph unicode="A" horiz-adv-x="1134" d="M33 0l459 1434h151l459 -1434h-150l-180 557h-412l-178 -557h-149zM408 700h319l-160 498z" />
<glyph unicode="B" horiz-adv-x="1091" d="M82 0v1434h385q221 0 348 -103q123 -104 123 -284q0 -175 -123 -285q-4 -4 -8 -6q57 -23 102 -58q129 -121 129 -301t-129 -293q-133 -104 -358 -104h-469zM225 145h328q160 0 244 71t84 189.5t-88 188.5q-80 68 -240 68h-328v-517zM225 801h307h3q92 0 167 65 q82 66 82 180t-82 183q-87 65 -227 65h-4h-246v-493z" />
<glyph unicode="C" horiz-adv-x="1562" d="M57 716.5q0 157.5 60.5 297t165 244t244 165t296.5 60.5q158 0 297.5 -60.5t231.5 -153t145 -192.5h-172q-29 41 -65 76q-84 86 -197 135t-240 49t-240.5 -49t-198.5 -134q-183 -183 -183 -437q0 -127 49 -241t134 -198.5t198.5 -134t240.5 -49.5t240 50q167 73 264 212 h170q-53 -100 -145 -192t-231.5 -152.5t-297.5 -60.5t-297 60.5t-243.5 165t-165 243.5t-60.5 296.5z" />
<glyph unicode="D" horiz-adv-x="1329" d="M82 0v1434h481q147 0 278.5 -56.5t227.5 -153t152.5 -227.5t56.5 -278t-56.5 -278.5t-152.5 -229.5t-227 -154.5t-279 -56.5h-481zM225 143h338q238 0 403 169q169 172 169 407q0 233 -169 403q-166 168 -403 168h-338v-1147z" />
<glyph unicode="E" horiz-adv-x="1062" d="M82 0v1434h954v-144h-811v-590h668v-143h-668v-414h811v-143h-954z" />
<glyph unicode="F" horiz-adv-x="1103" d="M82 0v1434h954v-144h-811v-590h668v-143h-668v-557h-143z" />
<glyph unicode="G" horiz-adv-x="1628" d="M57 716.5q0 157.5 60.5 297t165 244t244 165t296.5 60.5q158 0 297.5 -60.5t231.5 -153t145 -192.5h-172q-29 41 -65 76q-84 86 -197 135t-240 49t-240.5 -49t-198.5 -134t-134 -197.5t-49 -239.5t49 -241t134 -198.5t198.5 -134t240.5 -49.5t246 40t205 154 q82 110 82 255v14h-479v143h645v-11q0 -329 -120 -479q-122 -151 -271.5 -205t-307.5 -54t-297 60.5t-243.5 165t-165 243.5t-60.5 296.5z" />
<glyph unicode="H" horiz-adv-x="1118" d="M82 0v1434h143v-734h668v734h143v-1434h-143v557h-668v-557h-143z" />
<glyph unicode="I" horiz-adv-x="303" d="M82 0v1434h143v-1434h-143z" />
<glyph unicode="J" horiz-adv-x="1054" d="M27 428h143q0 -138 96 -236q97 -98 238 -98q138 0 235 98q99 101 99 236v862h-668v144h811v-1006q0 -196 -140.5 -336.5t-336.5 -140.5q-197 0 -338 141q-139 139 -139 336z" />
<glyph unicode="K" horiz-adv-x="1081" d="M82 0v1434h143v-650l535 650h196l-550 -662l628 -772h-180l-543 659l-86 -102v-557h-143z" />
<glyph unicode="L" horiz-adv-x="1095" d="M82 0v1434h143v-1291h811v-143h-954z" />
<glyph unicode="M" horiz-adv-x="1366" d="M82 0v1434h143l457 -625l461 625h143v-1434h-143v1192l-461 -625l-457 623v-1190h-143z" />
<glyph unicode="N" horiz-adv-x="1118" d="M82 0v1434h143l668 -1147v1147h143v-1434h-143l-668 1147v-1147h-143z" />
<glyph unicode="O" horiz-adv-x="1644" d="M57 717q0 158 60.5 297t165 243.5t244 165t296.5 60.5q158 0 297.5 -60.5t243.5 -165t164.5 -244t60.5 -296.5q0 -158 -60.5 -297t-164.5 -243.5t-243.5 -165t-297.5 -60.5t-297 60.5t-243.5 165t-165 243.5t-60.5 297zM201 717q0 -127 49 -241t134 -198.5t198.5 -134 t240.5 -49.5t240 49.5t198 134t134 198.5t49 241q0 254 -183 437q-85 85 -198 134t-240 49t-240.5 -49t-198.5 -134q-183 -183 -183 -437z" />
<glyph unicode="P" horiz-adv-x="1019" d="M82 0v1434h426q221 0 348 -103q123 -104 123 -334q0 -147 -32 -216.5t-91 -123.5q-127 -100 -348 -100h-283v-557h-143zM225 696h287q143 0 231 66q82 66 82 231.5t-82 235.5q-87 65 -227 65h-4h-287v-598z" />
<glyph unicode="Q" horiz-adv-x="1630" d="M45 717q0 158 60.5 297t165 243.5t243.5 165t297 60.5t297 -60.5t243.5 -165t165 -244t60.5 -296.5q0 -158 -61 -297q-120 -278 -394 -402q8 -31 40 -60.5t83 -29.5v-143q-110 0 -187 77q-49 49 -67 111q-84 -22 -172 -22h-8q-158 0 -297 60.5t-243.5 165t-165 243.5 t-60.5 297zM188 717q0 -127 49.5 -241t134.5 -198.5t198.5 -134t216 -49.5t176.5 19q-38 57 -107 57v143q113 0 186 -77q33 -31 52 -72q198 104 288 312q50 114 50 241q0 253 -184 437q-183 183 -437 183q-127 0 -240.5 -49t-198.5 -134q-184 -184 -184 -437z" />
<glyph unicode="R" horiz-adv-x="1040" d="M82 0v1434h426q209 0 342 -103q129 -121 129 -339t-129 -330q-27 -20 -57 -39q29 -16 55 -35q129 -113 129 -295v-293h-143v293q0 117 -91 194q-76 70 -213 70h-305v-557h-143zM225 692h285q322 0 324 309q0 162 -91 234q-82 70 -233 70h-285v-613z" />
<glyph unicode="S" horiz-adv-x="1118" d="M49 428h144q0 -139 110 -238q109 -97 257 -97q66 0 140 19q132 35 192 135q30 50 30 135t-55.5 146.5t-140.5 101.5t-187.5 71.5t-194.5 72.5t-161.5 103.5t-90.5 164.5q-2 19 -2 38q0 68 28 130q36 80 102.5 140.5t157.5 96.5t195.5 36t186.5 -39t139 -93.5t89 -113.5 t38 -100h-158q-39 98 -122.5 149t-162.5 53h-13q-72 -1 -130 -21q-64 -22 -112 -60q-47 -38 -73 -92q-17 -34 -17 -74q0 -22 6 -46q14 -66 80.5 -107.5t158.5 -74.5t194.5 -65.5t188.5 -84.5t142.5 -134t56.5 -196.5t-41 -192.5t-110 -131q-138 -109 -347 -109 q-207 0 -358 131q-160 139 -160 346z" />
<glyph unicode="T" horiz-adv-x="995" d="M20 1290v144h955v-144h-406v-1290h-143v1290h-406z" />
<glyph unicode="U" horiz-adv-x="1101" d="M74 428v1006h143v-1006q0 -140 96 -238q95 -96 238 -96q141 0 237.5 96.5t96.5 237.5v1006h143v-1006q0 -200 -138.5 -338.5t-338.5 -138.5q-201 0 -339 139q-138 137 -138 338z" />
<glyph unicode="V" horiz-adv-x="1134" d="M33 1434h149l385 -1198l385 1198h150l-459 -1434h-151z" />
<glyph unicode="W" horiz-adv-x="1357" d="M82 0v1434h143v-1190l457 622l461 -624v1192h143v-1434h-143l-461 625l-457 -625h-143z" />
<glyph unicode="X" horiz-adv-x="1077" d="M61 0l394 717l-369 717h166l287 -562l284 562h166l-368 -717l395 -717h-164l-313 561l-314 -561h-164z" />
<glyph unicode="Y" horiz-adv-x="1122" d="M27 1434h157l377 -732l377 732h158l-457 -871v-563h-154v559z" />
<glyph unicode="Z" horiz-adv-x="1052" d="M49 0v143l782 1147h-782v144h955v-144l-787 -1147h787v-143h-955z" />
<glyph unicode="[" horiz-adv-x="456" d="M82 -446v2134h358v-144h-215v-1847h215v-143h-358z" />
<glyph unicode="\" horiz-adv-x="638" d="M10 1434h152l467 -1434h-152z" />
<glyph unicode="]" horiz-adv-x="454" d="M16 -303h215v1847h-215v144h359v-2134h-359v143z" />
<glyph unicode="^" horiz-adv-x="931" d="M35 621l352 813h158l352 -813h-158l-274 630l-272 -630h-158z" />
<glyph unicode="_" horiz-adv-x="1196" d="M82 0v143h1032v-143h-1032z" />
<glyph unicode="`" horiz-adv-x="329" d="M35 1434h151l105 -260h-152z" />
<glyph unicode="a" horiz-adv-x="1249" d="M55 514q0 235 165 398q166 165 398 165q233 0 399 -165q165 -163 165 -398v-514h-144v137l-22 -22q-164 -164 -398 -164q-233 0 -398 165t-165 398zM199 514q0 -176 123 -297q124 -123 296 -123q173 0 298 123q116 115 122 279v18q0 176 -122 297q-125 123 -298 123 q-172 0 -296 -123q-123 -121 -123 -297z" />
<glyph unicode="b" horiz-adv-x="1220" d="M43 514v920h143v-574q57 92 180 154.5t240 62.5q234 0 398.5 -164.5t164.5 -398.5q0 -232 -165 -398q-163 -165 -398 -165q-233 0 -398 165t-165 398zM186 514q0 -175 124 -297q124 -123 296 -123q173 0 298 123q122 121 122 297t-122 297q-125 123 -298 123 q-172 0 -296 -123q-124 -122 -124 -297z" />
<glyph unicode="c" horiz-adv-x="1185" d="M55 514q0 235 165 398q166 165 398 165q233 0 399 -165q75 -74 126 -193h-160q-65 123 -201 182q-77 33 -164 33q-172 0 -296 -123q-123 -121 -123 -297t123 -297q124 -123 296 -123q174 0 297 123q41 41 70 94h158q-41 -110 -122 -191q-169 -169 -403 -169 q-233 0 -398 165t-165 398z" />
<glyph unicode="d" horiz-adv-x="1220" d="M23 514q0 234 164.5 398.5t398.5 164.5q117 0 239.5 -62.5t180.5 -154.5v574h143v-920q0 -233 -165 -398t-398 -165q-235 0 -398 165q-165 166 -165 398zM166 514q0 -176 122 -297q125 -123 298 -123q172 0 296 123q124 122 124 297t-124 297q-124 123 -296 123 q-173 0 -298 -123q-122 -121 -122 -297z" />
<glyph unicode="e" horiz-adv-x="1224" d="M55 514q0 235 165 398q166 165 398 165q233 0 399 -165q150 -148 163 -355h-979q-2 -23 -2 -43q0 -176 123 -297q124 -123 296 -123q174 0 297 123q41 41 70 94h158q-41 -110 -122 -191q-169 -169 -403 -169q-233 0 -398 165t-165 398zM242 700h751q-70 140 -211 201 q-77 33 -164 33q-173 0 -296 -123q-49 -49 -80 -111z" />
<glyph unicode="f" horiz-adv-x="649" d="M-20 557v143h104v459q0 115 80 195t194 80t196 -80q81 -79 81 -195h-143q0 53 -39 91t-93 38q-53 0 -91 -38t-38 -91v-459h265v-143h-265v-557h-147v557h-104z" />
<glyph unicode="g" horiz-adv-x="1251" d="M53 514q0 235 165 398q166 165 398 165q236 0 398 -166q12 -10 22 -22v135h144v-918q0 -233 -165 -398t-399 -165q-233 0 -399 166q-41 41 -74 92l105 105q70 -128 205 -186q77 -33 163 -33q175 0 297.5 122.5t122.5 296.5v31l-22 -22q-164 -164 -398 -164 q-233 0 -398 165t-165 398zM197 514q0 -176 123 -297q124 -123 296 -123q173 0 298 123q122 121 122 313q0 80 -28 148q-77 158 -229 223q-77 33 -163 33q-172 0 -296 -123q-123 -121 -123 -297z" />
<glyph unicode="h" horiz-adv-x="1085" d="M82 0v1434h147v-500q76 101 222 133q45 10 114.5 10t153.5 -36.5t147 -98.5q135 -136 135 -326v-2l3 -614h-148l-2 614v2q0 133 -92 223q-93 91 -221 91q-124 0 -216 -98q-94 -99 -94 -218v-614h-149z" />
<glyph unicode="i" horiz-adv-x="274" d="M53 1348q0 37 24.5 61.5t61.5 24.5t61.5 -25t24.5 -61q0 -37 -24.5 -61.5t-61.5 -24.5t-61.5 24.5t-24.5 61.5zM66 0v1024h143v-1024h-143z" />
<glyph unicode="j" horiz-adv-x="307" d="M-319 -129h147q0 -53 38 -91t91 -38t92 38t39 91v1153h143v-1153q0 -116 -81 -195t-195 -79q-115 0 -194.5 79.5t-79.5 194.5zM74 1348q0 37 24.5 61.5t61.5 24.5t61.5 -25t24.5 -61q0 -37 -24.5 -61.5t-61.5 -24.5t-61.5 24.5t-24.5 61.5z" />
<glyph unicode="k" horiz-adv-x="804" d="M82 1434h143v-748l381 338h170l-440 -416l463 -608h-185l-389 516l2 -516h-143z" />
<glyph unicode="l" horiz-adv-x="303" d="M82 0v1434h143v-1434h-143z" />
<glyph unicode="m" horiz-adv-x="1851" d="M82 1024h147v-92q49 66 134.5 105.5t192 39.5t203.5 -58t161 -155q61 96 166.5 154.5t214 58.5t192.5 -36.5t147 -98.5q134 -135 134 -328l2 -614h-148l-2 614q0 131 -91 224q-90 92 -220 92q-129 0 -221 -92q-93 -93 -93 -224l3 -614h-148l-2 614q-8 138 -97 227 t-216 89q-125 0 -219 -98q-93 -96 -93 -218l2 -614h-147z" />
<glyph unicode="n" horiz-adv-x="1071" d="M80 0v1024h143v-94q39 64 132 108q85 39 181.5 39t180.5 -36.5t147 -98.5q135 -136 135 -328l2 -614h-147l-2 614q0 132 -92 224t-221 92q-128 0 -222 -98q-94 -97 -94 -218l2 -614h-145z" />
<glyph unicode="o" horiz-adv-x="1236" d="M55 514q0 235 165 398q166 165 398 165q233 0 399 -165q165 -163 165 -398q0 -233 -165 -398t-399 -165q-233 0 -398 165t-165 398zM199 514q0 -176 123 -297q124 -123 296 -123q173 0 298 123q122 121 122 297t-122 297q-125 123 -298 123q-172 0 -296 -123 q-123 -121 -123 -297z" />
<glyph unicode="p" horiz-adv-x="1263" d="M63 -408v920q0 233 165 398t399 165q232 0 398 -165q165 -163 165 -398t-165 -398q-166 -165 -398 -165q-117 0 -240 62.5t-180 154.5v-574h-144zM207 512q0 -176 123 -297q124 -123 297 -123q172 0 297 123q123 122 123 297t-123 297q-125 123 -297 123 q-173 0 -297 -123q-123 -121 -123 -297z" />
<glyph unicode="q" horiz-adv-x="1259" d="M63 512q0 233 165 398t399 165q232 0 398 -165q165 -163 165 -398v-920h-143v574q-57 -92 -180.5 -154.5t-239.5 -62.5q-234 0 -399 165t-165 398zM207 512q0 -176 123 -297q124 -123 297 -123q172 0 297 123q123 122 123 297t-123 297q-125 123 -297 123 q-173 0 -297 -123q-123 -121 -123 -297z" />
<glyph unicode="r" horiz-adv-x="702" d="M82 1024h143v-195q10 20 23 33q166 166 399 166v-143q-172 0 -297 -123q-123 -122 -123 -297v-465h-143z" />
<glyph unicode="s" horiz-adv-x="849" d="M53 311h146q0 -116 99 -183q55 -37 145 -37h5q94 1 144.5 49t53.5 117v13q0 60 -24 94q-28 38 -81.5 63.5t-133 46t-147 49t-117 86t-58.5 134.5q-2 20 -2 38q-1 54 19 96q26 57 75 101q108 99 255 99q151 0 244 -95q82 -84 92 -159h-154q-18 59 -69 91t-102.5 32 t-98.5 -16.5t-87 -65.5q-32 -39 -32 -80q0 -10 2 -21q10 -52 48 -79t100.5 -49.5t138.5 -47t142 -66.5q141 -89 141 -265q0 -139 -110 -225q-103 -80 -255 -80t-264 97q-115 100 -115 253v10z" />
<glyph unicode="t" horiz-adv-x="591" d="M37 881v143h104v410h144v-410h268v-143h-268v-881h-144v881h-104z" />
<glyph unicode="u" horiz-adv-x="1060" d="M70 1024h147l2 -561v-2q0 -132 92 -222q94 -92 221 -92q130 0 224 92q92 90 92 222v563h143v-563q0 -191 -133 -325q-137 -136 -326 -136q-188 0 -324 136t-136 325v2z" />
<glyph unicode="v" horiz-adv-x="1116" d="M33 1024h157l367 -844l369 844h157l-446 -1024h-158z" />
<glyph unicode="w" horiz-adv-x="1843" d="M76 414v610h143v-610q0 -131 91 -224q90 -92 222 -92q130 0 222 92q94 94 94 224v610h147v-610q4 -135 96 -227q89 -89 216 -89q132 0 222 92q91 93 91 224v610h147v-610q0 -194 -135 -326q-138 -137 -325 -137q-123 0 -224.5 57.5t-162.5 155.5q-63 -98 -165 -155.5 t-210.5 -57.5t-191.5 37t-145 100q-132 134 -132 326z" />
<glyph unicode="x" horiz-adv-x="841" d="M68 0l270 512l-270 512h165l189 -354l188 354h166l-272 -512l272 -512h-164l-190 356l-191 -356h-163z" />
<glyph unicode="y" horiz-adv-x="1073" d="M70 1024h147l2 -561v-2q0 -132 92 -222q94 -92 221 -92q130 0 224 92q92 90 92 222v563h143v-563q0 -191 -133 -325q-107 -106 -254 -132l2 -463h-145l-2 463q-145 26 -251 132q-136 136 -136 325v2z" />
<glyph unicode="z" horiz-adv-x="841" d="M68 0l467 881h-467v143h708l-469 -881h469v-143h-708z" />
<glyph unicode="{" horiz-adv-x="524" d="M12 551v145q63 0 112 46q50 45 50 110v534q0 128 90 214q91 88 215 88v-146q-64 0 -113 -44q-49 -46 -49 -112v-534q0 -137 -106 -229q106 -92 106 -228v-538q0 -65 49 -111q50 -45 113 -45v-145q-126 0 -215 87q-90 88 -90 214v538q0 63 -44 107.5t-105 48.5h-13z" />
<glyph unicode="|" horiz-adv-x="303" d="M82 -440v2128h143v-2128h-143z" />
<glyph unicode="}" horiz-adv-x="526" d="M47 -299q63 0 113 45q49 46 49 111v538q0 136 106 228q-106 92 -106 229v534q0 66 -49 112q-49 44 -113 44v146q124 0 215 -88q90 -86 90 -214v-534q0 -65 50 -110q49 -46 112 -46v-145h-12q-61 -4 -105.5 -48t-44.5 -108v-538q0 -126 -90 -214q-89 -87 -215 -87v145z " />
<glyph unicode="~" horiz-adv-x="1019" d="M55 791v100h148v-100q0 -53 38 -91t87 -38t83.5 29.5t71.5 64.5t85 64.5t112.5 29.5t115 -21.5t87.5 -58.5q80 -80 80 -195v-100h-148v100q0 53 -38 91.5t-87 38.5t-83 -30t-70.5 -65t-85 -64.5t-113.5 -29.5t-115.5 21.5t-87.5 58.5q-80 80 -80 195z" />
<glyph unicode="&#xa2;" horiz-adv-x="1132" d="M29 514q0 117 44 220q91 211 300 298q68 31 143 39v301h143v-299q195 -25 331 -161q75 -74 126 -193h-160q-91 172 -297 209v-830q133 22 230 119q41 41 69 94h158q-41 -110 -122 -191q-140 -140 -335 -165v-301h-143v301q-76 10 -143 41q-209 88 -300 299 q-44 102 -44 219zM172 514q0 -174 123 -297q91 -91 221 -117v828q-126 -22 -221 -117q-123 -123 -123 -297z" />
<glyph unicode="&#xa3;" horiz-adv-x="743" d="M43 606v144h104v458q0 115 80 195t195 80q114 0 196 -80q80 -79 80 -195h-143q0 53 -39 91t-92 38t-91 -37.5t-38 -91.5v-458h264v-144h-264v-463h401v-143h-549v606h-104z" />
<glyph unicode="&#xa5;" d="M35 1434h149l383 -729h2l385 729h150l-383 -729h340v-144h-414v-147h414v-144h-414v-270h-153v270h-408v144h408v145l-2 2h-406v144h332z" />
<glyph unicode="&#xa8;" horiz-adv-x="647" d="M74 1608q0 37 24.5 61.5t61.5 24.5t61.5 -24.5t24.5 -61.5t-24.5 -61.5t-61.5 -24.5t-61.5 24.5t-24.5 61.5zM401 1608q0 37 25 61.5t61 24.5q37 0 61.5 -24.5t24.5 -61.5t-24.5 -61.5t-61.5 -24.5t-61.5 24.5t-24.5 61.5z" />
<glyph unicode="&#xa9;" horiz-adv-x="1644" d="M57 717q0 158 60.5 297t165 243.5t244 165t296.5 60.5q158 0 297.5 -60.5t243.5 -165t164.5 -244t60.5 -296.5q0 -158 -60.5 -297t-164.5 -243.5t-243.5 -165t-297.5 -60.5t-297 60.5t-243.5 165t-165 243.5t-60.5 297zM201 717q0 -127 49 -241t134 -198.5t198.5 -134 t240.5 -49.5t240 49.5t198 134t134 198.5t49 241q0 254 -183 437q-85 85 -198 134t-240 49t-240.5 -49t-198.5 -134q-183 -183 -183 -437zM336 716q0 201 146 351q140 143 347 143q209 0 351 -143q69 -70 106 -160l2 -12h-137q-66 115 -176 163q-68 29 -144 29t-142 -29.5 t-117 -81.5q-109 -110 -109 -259t109 -259q110 -112 257 -112q156 0 263 113q33 33 59 80h137l-2 -13q-37 -90 -106 -160q-144 -143 -351 -143q-205 0 -347 143q-146 149 -146 350z" />
<glyph unicode="&#xab;" horiz-adv-x="1095" d="M25 510l510 510l100 -102l-408 -408l408 -408l-100 -102zM414 510l510 510l100 -102l-408 -408l408 -408l-100 -102z" />
<glyph unicode="&#xad;" horiz-adv-x="862" d="M82 557v143h698v-143h-698z" />
<glyph unicode="&#xae;" horiz-adv-x="1644" d="M57 717q0 158 60.5 297t165 243.5t244 165t296.5 60.5q158 0 297.5 -60.5t243.5 -165t164.5 -244t60.5 -296.5q0 -158 -60.5 -297t-164.5 -243.5t-243.5 -165t-297.5 -60.5t-297 60.5t-243.5 165t-165 243.5t-60.5 297zM201 717q0 -127 49 -241t134 -198.5t198.5 -134 t240.5 -49.5t240 49.5t198 134t134 198.5t49 241q0 254 -183 437q-85 85 -198 134t-240 49t-240.5 -49t-198.5 -134q-183 -183 -183 -437zM551 250v983h264q195 0 280 -87t85 -202t-63.5 -166t-108.5 -55q39 0 104.5 -53.5t65.5 -173.5v-246h-144v231q0 104 -65.5 140 t-130.5 36h-144v-407h-143zM694 793h123q111 0 163 30.5t54 116.5v12q0 59 -46 105.5t-171 46.5h-123v-311z" />
<glyph unicode="&#xb1;" horiz-adv-x="774" d="M39 0v143h698v-143h-698zM39 557v143h274v275h144v-275h280v-143h-280v-281h-144v281h-274z" />
<glyph unicode="&#xb4;" horiz-adv-x="329" d="M39 1174l104 260h152l-105 -260h-151z" />
<glyph unicode="&#xb7;" horiz-adv-x="288" d="M59 645q0 37 25 61.5t61 24.5q37 0 61.5 -24.5t24.5 -61.5t-24.5 -61.5t-61.5 -24.5t-61.5 24.5t-24.5 61.5z" />
<glyph unicode="&#xb8;" horiz-adv-x="471" d="M82 0h143v-113q89 0 152 -63t63 -152q0 -90 -63 -152q-63 -61 -152 -61h-143v144h143q29 0 49.5 20.5t20.5 48.5q0 29 -20.5 50.5t-49.5 21.5h-143v256z" />
<glyph unicode="&#xbb;" horiz-adv-x="1095" d="M72 102l407 408l-407 408l100 102l510 -510l-510 -510zM461 102l407 408l-407 408l100 102l510 -510l-510 -510z" />
<glyph unicode="&#xbf;" horiz-adv-x="1015" d="M31 506q0 193 127 334q124 139 313 166v159h143v-291h-77q-153 0 -261 -107q-108 -106 -108 -261t108 -261q109 -108 261 -108q214 0 311 158h151q-57 -139 -180 -217t-282 -78q-209 0 -357.5 148.5t-148.5 357.5zM455 1348q0 37 24.5 61.5t61.5 24.5t61.5 -25t24.5 -61 q0 -37 -24.5 -61.5t-61.5 -24.5t-61.5 24.5t-24.5 61.5z" />
<glyph unicode="&#xc0;" d="M33 0l459 1434h151l459 -1434h-150l-180 557h-412l-178 -557h-149zM385 1833h151l105 -260h-152zM408 700h319l-160 498z" />
<glyph unicode="&#xc1;" d="M33 0l459 1434h151l459 -1434h-150l-180 557h-412l-178 -557h-149zM408 700h319l-160 498zM499 1575h152l104 260h-151z" />
<glyph unicode="&#xc2;" d="M33 0l459 1434h151l459 -1434h-150l-180 557h-412l-178 -557h-149zM291 1525l186 267h183l188 -267h-156l-122 172l-125 -172h-154zM408 700h319l-160 498z" />
<glyph unicode="&#xc3;" d="M33 0l459 1434h151l459 -1434h-150l-180 557h-412l-178 -557h-149zM301 1620q49 84 135 107.5t170 -23.5q63 -36 102 31l127 -76q-49 -84 -135 -107.5t-170 25.5q-62 40 -102 -33zM408 700h319l-160 498z" />
<glyph unicode="&#xc4;" d="M33 0l459 1434h151l459 -1434h-150l-180 557h-412l-178 -557h-149zM318 1717q0 37 24.5 61.5t61.5 24.5t61.5 -24.5t24.5 -61.5t-24.5 -61.5t-61.5 -24.5t-61.5 24.5t-24.5 61.5zM408 700h319l-160 498zM645 1717q0 37 25 61.5t61 24.5q37 0 61.5 -24.5t24.5 -61.5 t-24.5 -61.5t-61.5 -24.5t-61.5 24.5t-24.5 61.5z" />
<glyph unicode="&#xc6;" horiz-adv-x="1574" d="M43 0l459 1434h1030v-144h-811v-590h668v-143h-668v-414h811v-143h-954v557h-207l-178 -557h-150zM418 700h160v498z" />
<glyph unicode="&#xc7;" horiz-adv-x="1576" d="M57 716.5q0 157.5 60.5 297t165 244t244 165t296.5 60.5q158 0 297.5 -60.5t231.5 -153t145 -192.5h-172q-29 41 -65 76q-84 86 -197 135t-240 49t-240.5 -49t-198.5 -134q-183 -183 -183 -437q0 -127 49 -241t134 -198.5t198.5 -134t240.5 -49.5t240 50q167 73 264 212 h170q-53 -100 -145 -192t-231.5 -152.5t-297.5 -60.5t-297 60.5t-243.5 165t-165 243.5t-60.5 296.5zM727 0h143v-113q89 0 152 -63t63 -152q0 -90 -63 -152q-63 -61 -152 -61h-143v144h143q29 0 49.5 20.5t20.5 48.5q0 29 -20.5 50.5t-49.5 21.5h-143v256z" />
<glyph unicode="&#xc8;" horiz-adv-x="1103" d="M82 0v1434h954v-144h-811v-590h668v-143h-668v-414h811v-143h-954zM402 1835h151l105 -260h-152z" />
<glyph unicode="&#xc9;" horiz-adv-x="1091" d="M82 0v1434h954v-144h-811v-590h668v-143h-668v-414h811v-143h-954zM506 1575h152l104 260h-151z" />
<glyph unicode="&#xca;" horiz-adv-x="1091" d="M82 0v1434h954v-144h-811v-590h668v-143h-668v-414h811v-143h-954zM299 1575l186 267h183l188 -267h-156l-122 172l-125 -172h-154z" />
<glyph unicode="&#xcb;" horiz-adv-x="1107" d="M82 0v1434h954v-144h-811v-590h668v-143h-668v-414h811v-143h-954zM318 1719q0 37 24.5 61.5t61.5 24.5t61.5 -24.5t24.5 -61.5t-24.5 -61.5t-61.5 -24.5t-61.5 24.5t-24.5 61.5zM645 1719q0 37 25 61.5t61 24.5q37 0 61.5 -24.5t24.5 -61.5t-24.5 -61.5t-61.5 -24.5 t-61.5 24.5t-24.5 61.5z" />
<glyph unicode="&#xcc;" horiz-adv-x="321" d="M-14 1835h151l105 -260h-152zM90 0v1434h143v-1434h-143z" />
<glyph unicode="&#xcd;" horiz-adv-x="313" d="M86 0v1434h143v-1434h-143zM88 1575h152l104 260h-151z" />
<glyph unicode="&#xce;" horiz-adv-x="307" d="M-117 1575l186 267h183l188 -267h-156l-122 172l-125 -172h-154zM82 0v1434h143v-1434h-143z" />
<glyph unicode="&#xcf;" horiz-adv-x="311" d="M-92 1719q0 37 24.5 61.5t61.5 24.5t61.5 -24.5t24.5 -61.5t-24.5 -61.5t-61.5 -24.5t-61.5 24.5t-24.5 61.5zM82 0v1434h143v-1434h-143zM235 1719q0 37 25 61.5t61 24.5q37 0 61.5 -24.5t24.5 -61.5t-24.5 -61.5t-61.5 -24.5t-61.5 24.5t-24.5 61.5z" />
<glyph unicode="&#xd0;" horiz-adv-x="1376" d="M-78 645v143h203v646h481q147 0 278.5 -56.5t227.5 -153t152.5 -227.5t56.5 -278t-56.5 -278.5t-152.5 -229.5t-227 -154.5t-279 -56.5h-481v645h-203zM268 143h338q238 0 404 169q168 172 168 407q0 233 -168 403q-167 168 -404 168h-338v-502h353v-143h-353v-502z" />
<glyph unicode="&#xd1;" horiz-adv-x="1118" d="M82 0v1434h143l668 -1147v1147h143v-1434h-143l-668 1147v-1147h-143zM285 1622q49 84 135 107.5t170 -23.5q63 -36 102 31l127 -76q-49 -84 -135 -107.5t-170 25.5q-62 40 -102 -33z" />
<glyph unicode="&#xd2;" horiz-adv-x="1650" d="M57 717q0 158 60.5 297t165 243.5t244 165t296.5 60.5q158 0 297.5 -60.5t243.5 -165t164.5 -244t60.5 -296.5q0 -158 -60.5 -297t-164.5 -243.5t-243.5 -165t-297.5 -60.5t-297 60.5t-243.5 165t-165 243.5t-60.5 297zM201 717q0 -127 49 -241t134 -198.5t198.5 -134 t240.5 -49.5t240 49.5t198 134t134 198.5t49 241q0 254 -183 437q-85 85 -198 134t-240 49t-240.5 -49t-198.5 -134q-183 -183 -183 -437zM629 1835h151l105 -260h-152z" />
<glyph unicode="&#xd3;" horiz-adv-x="1669" d="M57 717q0 158 60.5 297t165 243.5t244 165t296.5 60.5q158 0 297.5 -60.5t243.5 -165t164.5 -244t60.5 -296.5q0 -158 -60.5 -297t-164.5 -243.5t-243.5 -165t-297.5 -60.5t-297 60.5t-243.5 165t-165 243.5t-60.5 297zM201 717q0 -127 49 -241t134 -198.5t198.5 -134 t240.5 -49.5t240 49.5t198 134t134 198.5t49 241q0 254 -183 437q-85 85 -198 134t-240 49t-240.5 -49t-198.5 -134q-183 -183 -183 -437zM751 1575h152l104 260h-151z" />
<glyph unicode="&#xd4;" horiz-adv-x="1634" d="M49 717q0 158 60.5 297t165 243.5t244 165t296.5 60.5q158 0 297.5 -60.5t243.5 -165t164.5 -244t60.5 -296.5q0 -158 -60.5 -297t-164.5 -243.5t-243.5 -165t-297.5 -60.5t-297 60.5t-243.5 165t-165 243.5t-60.5 297zM193 717q0 -127 49 -241t134 -198.5t198.5 -134 t240.5 -49.5t240 49.5t198 134t134 198.5t49 241q0 254 -183 437q-85 85 -198 134t-240 49t-240.5 -49t-198.5 -134q-183 -183 -183 -437zM528 1575l186 267h183l188 -267h-156l-122 172l-125 -172h-154z" />
<glyph unicode="&#xd5;" horiz-adv-x="1656" d="M57 717q0 158 60.5 297t165 243.5t244 165t296.5 60.5q158 0 297.5 -60.5t243.5 -165t164.5 -244t60.5 -296.5q0 -158 -60.5 -297t-164.5 -243.5t-243.5 -165t-297.5 -60.5t-297 60.5t-243.5 165t-165 243.5t-60.5 297zM201 717q0 -127 49 -241t134 -198.5t198.5 -134 t240.5 -49.5t240 49.5t198 134t134 198.5t49 241q0 254 -183 437q-85 85 -198 134t-240 49t-240.5 -49t-198.5 -134q-183 -183 -183 -437zM559 1669q49 84 135 107.5t170 -23.5q63 -36 102 31l127 -76q-49 -84 -135 -107.5t-170 25.5q-62 40 -102 -33z" />
<glyph unicode="&#xd6;" horiz-adv-x="1644" d="M57 717q0 158 60.5 297t165 243.5t244 165t296.5 60.5q158 0 297.5 -60.5t243.5 -165t164.5 -244t60.5 -296.5q0 -158 -60.5 -297t-164.5 -243.5t-243.5 -165t-297.5 -60.5t-297 60.5t-243.5 165t-165 243.5t-60.5 297zM201 717q0 -127 49 -241t134 -198.5t198.5 -134 t240.5 -49.5t240 49.5t198 134t134 198.5t49 241q0 254 -183 437q-85 85 -198 134t-240 49t-240.5 -49t-198.5 -134q-183 -183 -183 -437zM572 1717q0 37 24.5 61.5t61.5 24.5t61.5 -24.5t24.5 -61.5t-24.5 -61.5t-61.5 -24.5t-61.5 24.5t-24.5 61.5zM899 1717q0 37 25 61.5 t61 24.5q37 0 61.5 -24.5t24.5 -61.5t-24.5 -61.5t-61.5 -24.5t-61.5 24.5t-24.5 61.5z" />
<glyph unicode="&#xd7;" horiz-adv-x="722" d="M61 373l199 198l-194 193l102 102l194 -194l193 194l102 -102l-194 -193l199 -198l-101 -103l-199 199l-198 -199z" />
<glyph unicode="&#xd8;" horiz-adv-x="1617" d="M43 717q0 158 60.5 297t165 243.5t243.5 165t297 60.5q86 0 166 -19l63 195h152l-78 -240q135 -59 238.5 -162.5t164 -243t60.5 -296.5q0 -158 -60.5 -297t-165 -243.5t-243.5 -165t-297 -60.5q-88 0 -168 18l-61 -188h-152l76 233q-277 121 -400 406q-61 139 -61 297z M186 717q0 -127 50 -241q98 -227 313 -324l381 1173q-59 12 -121 12q-127 0 -240.5 -49t-198.5 -134q-184 -184 -184 -437zM686 106q60 -12 123 -12q127 0 239.5 49.5t197.5 134t134.5 198.5t49.5 241t-50 239q-95 217 -313 324z" />
<glyph unicode="&#xd9;" horiz-adv-x="1107" d="M74 428v1006h143v-1006q0 -140 96 -238q95 -96 238 -96q141 0 237.5 96.5t96.5 237.5v1006h143v-1006q0 -200 -138.5 -338.5t-338.5 -138.5q-201 0 -339 139q-138 137 -138 338zM379 1835h151l105 -260h-152z" />
<glyph unicode="&#xda;" horiz-adv-x="1107" d="M74 428v1006h143v-1006q0 -140 96 -238q95 -96 238 -96q141 0 237.5 96.5t96.5 237.5v1006h143v-1006q0 -200 -138.5 -338.5t-338.5 -138.5q-201 0 -339 139q-138 137 -138 338zM477 1575h152l104 260h-151z" />
<glyph unicode="&#xdb;" horiz-adv-x="1107" d="M74 428v1006h143v-1006q0 -140 96 -238q95 -96 238 -96q141 0 237.5 96.5t96.5 237.5v1006h143v-1006q0 -200 -138.5 -338.5t-338.5 -138.5q-201 0 -339 139q-138 137 -138 338zM272 1575l186 267h183l188 -267h-156l-122 172l-125 -172h-154z" />
<glyph unicode="&#xdc;" horiz-adv-x="1101" d="M74 428v1006h143v-1006q0 -140 96 -238q95 -96 238 -96q141 0 237.5 96.5t96.5 237.5v1006h143v-1006q0 -200 -138.5 -338.5t-338.5 -138.5q-201 0 -339 139q-138 137 -138 338zM314 1661q0 37 24.5 61.5t61.5 24.5t61.5 -24.5t24.5 -61.5t-24.5 -61.5t-61.5 -24.5 t-61.5 24.5t-24.5 61.5zM641 1661q0 37 25 61.5t61 24.5q37 0 61.5 -24.5t24.5 -61.5t-24.5 -61.5t-61.5 -24.5t-61.5 24.5t-24.5 61.5z" />
<glyph unicode="&#xdd;" horiz-adv-x="1144" d="M27 1434h157l377 -732l377 732h158l-457 -871v-563h-154v559zM483 1575l104 260h152l-105 -260h-151z" />
<glyph unicode="&#xde;" horiz-adv-x="833" d="M82 0v1434h143v-410h78q221 0 348 -102q123 -104 123 -285q0 -174 -123 -285q-127 -100 -348 -100h-78v-252h-143zM225 391h82q144 0 232 66q82 66 82 179.5t-82 182.5q-88 66 -232 66h-82v-494z" />
<glyph unicode="&#xdf;" horiz-adv-x="985" d="M82 0v1434h283q221 0 348 -103q123 -104 123 -284q0 -175 -123 -285q-4 -4 -8 -6q57 -23 102 -58q129 -121 129 -301t-129 -293q-133 -104 -358 -104h-64v145h66q159 0 243 71t84 189.5t-88 188.5q-80 68 -239 68h-66v139h45q94 0 170 65q82 66 82 180t-82 183 q-88 66 -231 65h-144v-1294h-143z" />
<glyph unicode="&#xe0;" horiz-adv-x="1267" d="M55 514q0 235 165 398q166 165 398 165q233 0 399 -165q165 -163 165 -398v-514h-144v137l-22 -22q-164 -164 -398 -164q-233 0 -398 165t-165 398zM199 514q0 -176 123 -297q124 -123 296 -123q173 0 298 123q116 115 122 279v18q0 176 -122 297q-125 123 -298 123 q-172 0 -296 -123q-123 -121 -123 -297zM436 1432h151l105 -260h-152z" />
<glyph unicode="&#xe1;" horiz-adv-x="1259" d="M55 514q0 235 165 398q166 165 398 165q233 0 399 -165q165 -163 165 -398v-514h-144v137l-22 -22q-164 -164 -398 -164q-233 0 -398 165t-165 398zM199 514q0 -176 123 -297q124 -123 296 -123q173 0 298 123q116 115 122 279v18q0 176 -122 297q-125 123 -298 123 q-172 0 -296 -123q-123 -121 -123 -297zM542 1172h152l104 260h-151z" />
<glyph unicode="&#xe2;" horiz-adv-x="1263" d="M55 514q0 235 165 398q166 165 398 165q233 0 399 -165q165 -163 165 -398v-514h-144v137l-22 -22q-164 -164 -398 -164q-233 0 -398 165t-165 398zM199 514q0 -176 123 -297q124 -123 296 -123q173 0 298 123q116 115 122 279v18q0 176 -122 297q-125 123 -298 123 q-172 0 -296 -123q-123 -121 -123 -297zM348 1167l186 267h183l188 -267h-156l-122 172l-125 -172h-154z" />
<glyph unicode="&#xe3;" horiz-adv-x="1267" d="M55 514q0 235 165 398q166 165 398 165q233 0 399 -165q165 -163 165 -398v-514h-144v137l-22 -22q-164 -164 -398 -164q-233 0 -398 165t-165 398zM199 514q0 -176 123 -297q124 -123 296 -123q173 0 298 123q116 115 122 279v18q0 176 -122 297q-125 123 -298 123 q-172 0 -296 -123q-123 -121 -123 -297zM336 1214q49 84 135 107.5t170 -23.5q63 -36 102 31l127 -76q-49 -84 -135 -107.5t-170 25.5q-62 40 -102 -33z" />
<glyph unicode="&#xe4;" horiz-adv-x="1269" d="M55 514q0 235 165 398q166 165 398 165q233 0 399 -165q165 -163 165 -398v-514h-144v137l-22 -22q-164 -164 -398 -164q-233 0 -398 165t-165 398zM199 514q0 -176 123 -297q124 -123 296 -123q173 0 298 123q116 115 122 279v18q0 176 -122 297q-125 123 -298 123 q-172 0 -296 -123q-123 -121 -123 -297zM375 1303q0 37 24.5 61.5t61.5 24.5t61.5 -24.5t24.5 -61.5t-24.5 -61.5t-61.5 -24.5t-61.5 24.5t-24.5 61.5zM702 1303q0 37 25 61.5t61 24.5q37 0 61.5 -24.5t24.5 -61.5t-24.5 -61.5t-61.5 -24.5t-61.5 24.5t-24.5 61.5z" />
<glyph unicode="&#xe6;" horiz-adv-x="2250" d="M86 514q0 235 165 398q166 165 398 165q233 0 399 -165q165 -163 165 -398v-514h-144v137l-22 -22q-164 -164 -398 -164q-233 0 -398 165t-165 398zM230 514q0 -176 123 -297q124 -123 296 -123q173 0 298 123q116 115 122 279v18q0 176 -122 297q-125 123 -298 123 q-172 0 -296 -123q-123 -121 -123 -297zM1069 514q0 235 165 398q166 165 398 165q233 0 399 -165q150 -148 163 -355h-979q-2 -23 -2 -43q0 -176 123 -297q124 -123 296 -123q174 0 297 123q41 41 70 94h158q-41 -110 -122 -191q-169 -169 -403 -169q-233 0 -398 165 t-165 398zM1256 700h751q-70 140 -211 201q-77 33 -164 33q-173 0 -296 -123q-49 -49 -80 -111z" />
<glyph unicode="&#xe7;" horiz-adv-x="1193" d="M55 514q0 235 165 398q166 165 398 165q233 0 399 -165q75 -74 126 -193h-160q-65 123 -201 182q-77 33 -164 33q-172 0 -296 -123q-123 -121 -123 -297t123 -297q124 -123 296 -123q174 0 297 123q41 41 70 94h158q-41 -110 -122 -191q-169 -169 -403 -169 q-233 0 -398 165t-165 398zM524 0h143v-113q89 0 152 -63t63 -152q0 -90 -63 -152q-63 -61 -152 -61h-143v144h143q29 0 49.5 20.5t20.5 48.5q0 29 -20.5 50.5t-49.5 21.5h-143v256z" />
<glyph unicode="&#xe8;" horiz-adv-x="1236" d="M55 514q0 235 165 398q166 165 398 165q233 0 399 -165q150 -148 163 -355h-979q-2 -23 -2 -43q0 -176 123 -297q124 -123 296 -123q174 0 297 123q41 41 70 94h158q-41 -110 -122 -191q-169 -169 -403 -169q-233 0 -398 165t-165 398zM242 700h751q-70 140 -211 201 q-77 33 -164 33q-173 0 -296 -123q-49 -49 -80 -111zM434 1432h151l105 -260h-152z" />
<glyph unicode="&#xe9;" horiz-adv-x="1236" d="M55 514q0 235 165 398q166 165 398 165q233 0 399 -165q150 -148 163 -355h-979q-2 -23 -2 -43q0 -176 123 -297q124 -123 296 -123q174 0 297 123q41 41 70 94h158q-41 -110 -122 -191q-169 -169 -403 -169q-233 0 -398 165t-165 398zM242 700h751q-70 140 -211 201 q-77 33 -164 33q-173 0 -296 -123q-49 -49 -80 -111zM522 1172h152l104 260h-151z" />
<glyph unicode="&#xea;" horiz-adv-x="1236" d="M55 514q0 235 165 398q166 165 398 165q233 0 399 -165q150 -148 163 -355h-979q-2 -23 -2 -43q0 -176 123 -297q124 -123 296 -123q174 0 297 123q41 41 70 94h158q-41 -110 -122 -191q-169 -169 -403 -169q-233 0 -398 165t-165 398zM242 700h751q-70 140 -211 201 q-77 33 -164 33q-173 0 -296 -123q-49 -49 -80 -111zM342 1169l186 267h183l188 -267h-156l-122 172l-125 -172h-154z" />
<glyph unicode="&#xeb;" horiz-adv-x="1236" d="M55 514q0 235 165 398q166 165 398 165q233 0 399 -165q150 -148 163 -355h-979q-2 -23 -2 -43q0 -176 123 -297q124 -123 296 -123q174 0 297 123q41 41 70 94h158q-41 -110 -122 -191q-169 -169 -403 -169q-233 0 -398 165t-165 398zM242 700h751q-70 140 -211 201 q-77 33 -164 33q-173 0 -296 -123q-49 -49 -80 -111zM365 1301q0 37 24.5 61.5t61.5 24.5t61.5 -24.5t24.5 -61.5t-24.5 -61.5t-61.5 -24.5t-61.5 24.5t-24.5 61.5zM692 1301q0 37 25 61.5t61 24.5q37 0 61.5 -24.5t24.5 -61.5t-24.5 -61.5t-61.5 -24.5t-61.5 24.5 t-24.5 61.5z" />
<glyph unicode="&#xec;" horiz-adv-x="288" d="M-31 1427h152l104 -260h-151zM80 0v1022h143v-1022h-143z" />
<glyph unicode="&#xed;" horiz-adv-x="294" d="M68 0v1022h143v-1022h-143zM68 1167l104 260h152l-105 -260h-151z" />
<glyph unicode="&#xee;" horiz-adv-x="311" d="M-121 1167l186 267h183l188 -267h-156l-122 172l-125 -172h-154zM82 0v1024h143v-1024h-143z" />
<glyph unicode="&#xef;" horiz-adv-x="294" d="M-94 1303q0 37 24.5 61.5t61.5 24.5t61.5 -24.5t24.5 -61.5t-24.5 -61.5t-61.5 -24.5t-61.5 24.5t-24.5 61.5zM82 0v1024h143v-1024h-143zM233 1303q0 37 25 61.5t61 24.5q37 0 61.5 -24.5t24.5 -61.5t-24.5 -61.5t-61.5 -24.5t-61.5 24.5t-24.5 61.5z" />
<glyph unicode="&#xf1;" horiz-adv-x="1085" d="M80 0v1024h143v-94q39 64 132 108q85 39 181.5 39t180.5 -36.5t147 -98.5q135 -136 135 -328l2 -614h-147l-2 614q0 132 -92 224t-221 92q-128 0 -222 -98q-94 -97 -94 -218l2 -614h-145zM248 1264q49 84 135 107.5t170 -23.5q63 -36 102 31l127 -76q-49 -84 -135 -107.5 t-170 25.5q-62 40 -102 -33z" />
<glyph unicode="&#xf2;" horiz-adv-x="1230" d="M55 514q0 235 165 398q166 165 398 165q233 0 399 -165q165 -163 165 -398q0 -233 -165 -398t-399 -165q-233 0 -398 165t-165 398zM199 514q0 -176 123 -297q124 -123 296 -123q173 0 298 123q122 121 122 297t-122 297q-125 123 -298 123q-172 0 -296 -123 q-123 -121 -123 -297zM436 1432h151l105 -260h-152z" />
<glyph unicode="&#xf3;" horiz-adv-x="1230" d="M55 514q0 235 165 398q166 165 398 165q233 0 399 -165q165 -163 165 -398q0 -233 -165 -398t-399 -165q-233 0 -398 165t-165 398zM199 514q0 -176 123 -297q124 -123 296 -123q173 0 298 123q122 121 122 297t-122 297q-125 123 -298 123q-172 0 -296 -123 q-123 -121 -123 -297zM539 1172l104 260h152l-105 -260h-151z" />
<glyph unicode="&#xf4;" horiz-adv-x="1230" d="M55 514q0 235 165 398q166 165 398 165q233 0 399 -165q165 -163 165 -398q0 -233 -165 -398t-399 -165q-233 0 -398 165t-165 398zM199 514q0 -176 123 -297q124 -123 296 -123q173 0 298 123q122 121 122 297t-122 297q-125 123 -298 123q-172 0 -296 -123 q-123 -121 -123 -297zM348 1167l186 267h183l188 -267h-156l-122 172l-125 -172h-154z" />
<glyph unicode="&#xf5;" horiz-adv-x="1230" d="M55 514q0 235 165 398q166 165 398 165q233 0 399 -165q165 -163 165 -398q0 -233 -165 -398t-399 -165q-233 0 -398 165t-165 398zM199 514q0 -176 123 -297q124 -123 296 -123q173 0 298 123q122 121 122 297t-122 297q-125 123 -298 123q-172 0 -296 -123 q-123 -121 -123 -297zM340 1264q49 84 135 107.5t170 -23.5q63 -36 102 31l127 -76q-49 -84 -135 -107.5t-170 25.5q-62 40 -102 -33z" />
<glyph unicode="&#xf6;" horiz-adv-x="1230" d="M55 514q0 235 165 398q166 165 398 165q233 0 399 -165q165 -163 165 -398q0 -233 -165 -398t-399 -165q-233 0 -398 165t-165 398zM199 514q0 -176 123 -297q124 -123 296 -123q173 0 298 123q122 121 122 297t-122 297q-125 123 -298 123q-172 0 -296 -123 q-123 -121 -123 -297zM367 1305q0 37 24.5 61.5t61.5 24.5t61.5 -24.5t24.5 -61.5t-24.5 -61.5t-61.5 -24.5t-61.5 24.5t-24.5 61.5zM694 1305q0 37 25 61.5t61 24.5q37 0 61.5 -24.5t24.5 -61.5t-24.5 -61.5t-61.5 -24.5t-61.5 24.5t-24.5 61.5z" />
<glyph unicode="&#xf7;" horiz-adv-x="292" d="M-213 418v143h698v-143h-698zM63 86q0 37 25 61.5t62 24.5t61.5 -24.5t24.5 -61.5t-25 -61.5t-61 -24.5q-37 0 -62 24.5t-25 61.5zM63 938q0 37 25 61.5t62 24.5t61.5 -24.5t24.5 -61.5t-25 -61.5t-61 -24.5q-37 0 -62 24.5t-25 61.5z" />
<glyph unicode="&#xf8;" horiz-adv-x="1208" d="M41 514q0 117 44 219.5t121 178.5q166 165 398 165q53 0 103 -10l55 168h151l-69 -211q90 -43 157 -113q166 -162 166 -397q0 -232 -165 -398q-163 -165 -398 -165q-55 0 -106 10l-52 -160h-151l65 203q-189 93 -275 291q-44 102 -44 219zM184 514q0 -174 123 -297 q43 -45 99 -74l256 787q-29 4 -86.5 4t-134 -33t-133.5 -90q-124 -122 -124 -297zM543 98q30 -4 88.5 -4t135.5 33t134 90q123 123 123 297t-123 297q-45 45 -102 74z" />
<glyph unicode="&#xf9;" horiz-adv-x="1073" d="M70 1024h147l2 -561v-2q0 -132 92 -222q94 -92 221 -92q130 0 224 92q92 90 92 222v563h143v-563q0 -191 -133 -325q-137 -136 -326 -136q-188 0 -324 136t-136 325v2zM357 1432h151l105 -260h-152z" />
<glyph unicode="&#xfa;" horiz-adv-x="1069" d="M70 1024h147l2 -561v-2q0 -132 92 -222q94 -92 221 -92q130 0 224 92q92 90 92 222v563h143v-563q0 -191 -133 -325q-137 -136 -326 -136q-188 0 -324 136t-136 325v2zM459 1174l104 260h152l-105 -260h-151z" />
<glyph unicode="&#xfb;" horiz-adv-x="1073" d="M70 1024h147l2 -561v-2q0 -132 92 -222q94 -92 221 -92q130 0 224 92q92 90 92 222v563h143v-563q0 -191 -133 -325q-137 -136 -326 -136q-188 0 -324 136t-136 325v2zM256 1167l186 267h183l188 -267h-156l-122 172l-125 -172h-154z" />
<glyph unicode="&#xfc;" horiz-adv-x="1073" d="M70 1024h147l2 -561v-2q0 -132 92 -222q94 -92 221 -92q130 0 224 92q92 90 92 222v563h143v-563q0 -191 -133 -325q-137 -136 -326 -136q-188 0 -324 136t-136 325v2zM287 1303q0 37 24.5 61.5t61.5 24.5t61.5 -24.5t24.5 -61.5t-24.5 -61.5t-61.5 -24.5t-61.5 24.5 t-24.5 61.5zM614 1303q0 37 25 61.5t61 24.5q37 0 61.5 -24.5t24.5 -61.5t-24.5 -61.5t-61.5 -24.5t-61.5 24.5t-24.5 61.5z" />
<glyph unicode="&#xfd;" horiz-adv-x="1181" d="M70 1024h147l2 -561v-2q0 -132 92 -222q94 -92 221 -92q130 0 224 92q92 90 92 222v563h143v-563q0 -191 -133 -325q-107 -106 -254 -132l2 -463h-145l-2 463q-145 26 -251 132q-136 136 -136 325v2zM467 1174l104 260h152l-105 -260h-151z" />
<glyph unicode="&#xfe;" horiz-adv-x="1282" d="M82 -440v1874h143v-545q75 89 189 138.5t231 49.5q234 0 398.5 -164.5t164.5 -398.5q0 -232 -164 -398q-164 -165 -399 -165q-231 0 -399 164q-10 12 -21 22v-577h-143zM225 514q0 -175 123 -297q125 -123 297 -123q174 0 297 123t123 297t-123 297t-297 123 q-172 0 -297 -123q-114 -113 -123 -270v-27z" />
<glyph unicode="&#xff;" horiz-adv-x="1073" d="M70 1024h147l2 -561v-2q0 -132 92 -222q94 -92 221 -92q130 0 224 92q92 90 92 222v563h143v-563q0 -191 -133 -325q-107 -106 -254 -132l2 -463h-145l-2 463q-145 26 -251 132q-136 136 -136 325v2zM279 1303q0 37 24.5 61.5t61.5 24.5t61.5 -24.5t24.5 -61.5 t-24.5 -61.5t-61.5 -24.5t-61.5 24.5t-24.5 61.5zM606 1303q0 37 25 61.5t61 24.5q37 0 61.5 -24.5t24.5 -61.5t-24.5 -61.5t-61.5 -24.5t-61.5 24.5t-24.5 61.5z" />
<glyph unicode="&#x152;" horiz-adv-x="1775" d="M59 717q0 147 56.5 278t154 228.5t228.5 154t278 56.5h955v-144h-811v-590h667v-143h-667v-414h811v-143h-955q-147 0 -278 56.5t-228.5 153.5t-154 228t-56.5 279zM205 715q0 -238 167 -405t404 -167v1145q-238 0 -404 -168q-167 -169 -167 -405z" />
<glyph unicode="&#x153;" horiz-adv-x="2222" d="M57 514q0 235 165 398q166 165 398 165q233 0 399 -165q165 -163 165 -398q0 -233 -165 -398t-399 -165q-233 0 -398 165t-165 398zM201 514q0 -176 123 -297q124 -123 296 -123q173 0 298 123q122 121 122 297t-122 297q-125 123 -298 123q-172 0 -296 -123 q-123 -121 -123 -297zM1040 514q0 235 165 398q166 165 398 165q233 0 399 -165q150 -148 163 -355h-979q-2 -23 -2 -43q0 -176 123 -297q124 -123 296 -123q174 0 297 123q41 41 70 94h158q-41 -110 -122 -191q-169 -169 -403 -169q-233 0 -398 165t-165 398zM1227 700h751 q-70 140 -211 201q-77 33 -164 33q-173 0 -296 -123q-49 -49 -80 -111z" />
<glyph unicode="&#x178;" horiz-adv-x="1107" d="M27 1434h157l377 -732l377 732h158l-457 -871v-563h-154v559zM314 1719q0 37 24.5 61.5t61.5 24.5t61.5 -24.5t24.5 -61.5t-24.5 -61.5t-61.5 -24.5t-61.5 24.5t-24.5 61.5zM641 1719q0 37 25 61.5t61 24.5q37 0 61.5 -24.5t24.5 -61.5t-24.5 -61.5t-61.5 -24.5 t-61.5 24.5t-24.5 61.5z" />
<glyph unicode="&#x2c6;" horiz-adv-x="645" d="M45 1167l186 267h183l188 -267h-156l-122 172l-125 -172h-154z" />
<glyph unicode="&#x2dc;" horiz-adv-x="614" d="M39 1708q49 84 135 107.5t170 -23.5q63 -36 102 31l127 -76q-49 -84 -135 -107.5t-170 25.5q-62 40 -102 -33z" />
<glyph unicode="&#x2000;" horiz-adv-x="921" />
<glyph unicode="&#x2001;" horiz-adv-x="1842" />
<glyph unicode="&#x2002;" horiz-adv-x="921" />
<glyph unicode="&#x2003;" horiz-adv-x="1842" />
<glyph unicode="&#x2004;" horiz-adv-x="614" />
<glyph unicode="&#x2005;" horiz-adv-x="460" />
<glyph unicode="&#x2006;" horiz-adv-x="307" />
<glyph unicode="&#x2007;" horiz-adv-x="307" />
<glyph unicode="&#x2008;" horiz-adv-x="230" />
<glyph unicode="&#x2009;" horiz-adv-x="368" />
<glyph unicode="&#x200a;" horiz-adv-x="102" />
<glyph unicode="&#x2010;" horiz-adv-x="862" d="M82 557v143h698v-143h-698z" />
<glyph unicode="&#x2011;" horiz-adv-x="862" d="M82 557v143h698v-143h-698z" />
<glyph unicode="&#x2012;" horiz-adv-x="862" d="M82 557v143h698v-143h-698z" />
<glyph unicode="&#x2013;" horiz-adv-x="1011" d="M82 471v143h848v-143h-848z" />
<glyph unicode="&#x2014;" horiz-adv-x="1175" d="M82 471v143h1012v-143h-1012z" />
<glyph unicode="&#x2018;" horiz-adv-x="276" d="M57 1239v80q0 66 52 98q51 27 65 10.5t-8 -36.5q-49 -27 -35 -66q98 0 98 -86q0 -37 -24.5 -61.5t-61.5 -24.5t-61.5 24.5t-24.5 61.5z" />
<glyph unicode="&#x2019;" horiz-adv-x="274" d="M57 1348q0 37 24.5 61.5t61.5 24.5t61.5 -25t24.5 -61v-80q0 -66 -51 -99q-51 -27 -65.5 -10t8.5 37q49 27 35 66q-99 0 -99 86z" />
<glyph unicode="&#x201a;" horiz-adv-x="274" d="M43 86q0 37 24.5 61.5t61.5 24.5t61.5 -24.5t24.5 -61.5v-39q0 -41 -27.5 -68.5t-68.5 -27.5h-13q-8 0 -12 4q35 6 35 45q-37 0 -61.5 24.5t-24.5 61.5z" />
<glyph unicode="&#x201c;" horiz-adv-x="509" d="M37 1239v80q0 66 51 98q51 27 65.5 10.5t-8.5 -36.5q-49 -27 -34 -66q98 0 98 -86q0 -37 -24.5 -61.5t-61.5 -24.5t-61.5 24.5t-24.5 61.5zM303 1239v80q0 65 51 98q51 27 65.5 10.5t-7.5 -36.5q-49 -27 -35 -66q98 0 98 -86q0 -37 -24.5 -61.5t-61.5 -24.5t-61.5 24.5 t-24.5 61.5z" />
<glyph unicode="&#x201d;" horiz-adv-x="507" d="M37 1348q0 37 24.5 61.5t61.5 24.5t61.5 -25t24.5 -61v-80q0 -64 -51 -99q-51 -27 -65.5 -10t7.5 37q49 27 35 66q-98 0 -98 86zM303 1348q0 37 24.5 61.5t61.5 24.5t61.5 -25t24.5 -61v-80q0 -66 -51 -99q-51 -27 -65.5 -10t8.5 37q49 27 34 66q-98 0 -98 86z" />
<glyph unicode="&#x201e;" horiz-adv-x="532" d="M51 86q0 37 24.5 61.5t61.5 24.5t61.5 -24.5t24.5 -61.5v-80q0 -66 -51 -98q-51 -27 -65.5 -10.5t8.5 36.5q49 27 35 66q-99 0 -99 86zM317 86q0 37 25 61.5t61 24.5q37 0 61.5 -24.5t24.5 -61.5v-80q0 -66 -51 -98q-51 -27 -65.5 -10.5t8.5 36.5q49 27 35 66 q-99 0 -99 86z" />
<glyph unicode="&#x2022;" horiz-adv-x="466" d="M59 613q0 75 50.5 125t125 50t125 -50t50.5 -125t-50.5 -125t-125.5 -50t-125 50t-50 125z" />
<glyph unicode="&#x2026;" horiz-adv-x="747" d="M76 86q0 37 24.5 61.5t61.5 24.5t61.5 -24.5t24.5 -61.5t-24.5 -61.5t-61.5 -24.5t-61.5 24.5t-24.5 61.5zM289 86q0 37 24.5 61.5t61.5 24.5t61.5 -24.5t24.5 -61.5t-24.5 -61.5t-61.5 -24.5t-61.5 24.5t-24.5 61.5zM502 86q0 37 24.5 61.5t61.5 24.5t61.5 -24.5 t24.5 -61.5t-24.5 -61.5t-61.5 -24.5t-61.5 24.5t-24.5 61.5z" />
<glyph unicode="&#x202f;" horiz-adv-x="368" />
<glyph unicode="&#x2039;" horiz-adv-x="681" d="M6 510l510 510l100 -102l-407 -408l407 -408l-100 -102z" />
<glyph unicode="&#x203a;" horiz-adv-x="679" d="M63 102l408 408l-408 408l101 102l510 -510l-510 -510z" />
<glyph unicode="&#x205f;" horiz-adv-x="460" />
<glyph unicode="&#x20ac;" horiz-adv-x="1673" d="M39 496v143h176q-4 39 -4 76t2 67h-174v144h201q53 181 188 316q102 101 236.5 159.5t306 58.5t330.5 -88t262 -233h-199q-172 168 -412 168q-121 0 -228 -47q-219 -94 -314 -314q-6 -10 -11 -20h551v-144h-585q-5 -87 2 -143h583v-143h-542q0 -4 2 -7q97 -218 314 -313 q107 -47 207.5 -47t175.5 20.5t139 59.5q134 81 210 209h172q-87 -198 -268 -318q-184 -123 -408 -123q-154 0 -288 59q-272 118 -396 394q-14 33 -24 66h-205z" />
<glyph unicode="&#xe000;" horiz-adv-x="1024" d="M0 0v1024h1024v-1024h-1024z" />
<glyph unicode="&#xfb01;" horiz-adv-x="770" d="M41 762v143h104v254q0 115 80 195t195 80q114 0 196 -80q80 -79 80 -195h-143q0 53 -39 91t-92 38t-91 -38t-38 -91v-254h403v-905h-143v762h-260v-762h-148v762h-104z" />
<glyph unicode="&#xfb02;" horiz-adv-x="774" d="M41 557v143h104v459q0 115 80 195t195 80q114 0 196 -80q80 -79 80 -195v-1159h-143v1159q0 53 -39 91t-92 38t-91 -38t-38 -91v-459h162v-143h-162v-557h-148v557h-104z" />
</font>
</defs>
</svg>
